<?xml version="1.0" encoding="utf-8"?>
<svg version="1.1" xmlns:xlink="http://www.w3.org/1999/xlink" width="20px" height="21px" xmlns="http://www.w3.org/2000/svg">
  <g transform="matrix(1 0 0 1 -580 -1394 )">
    <path d="M 19.55078125 12.3798828125  C 19.6332465277778 12.4664713541667  19.6744791666667 12.5690104166667  19.6744791666667 12.6875  C 19.6744791666667 12.7330729166667  19.6701388888889 12.7649739583333  19.6614583333333 12.783203125  C 19.1059027777778 15.2259114583333  17.9427083333333 17.2060546875  16.171875 18.7236328125  C 14.4010416666667 20.2412109375  12.3263888888889 21  9.94791666666667 21  C 8.68055555555556 21  7.45442708333333 20.7493489583333  6.26953125 20.248046875  C 5.08463541666667 19.7467447916667  4.02777777777778 19.03125  3.09895833333333 18.1015625  L 1.41927083333333 19.865234375  C 1.25434027777778 20.0384114583333  1.05902777777778 20.125  0.833333333333333 20.125  C 0.607638888888889 20.125  0.412326388888889 20.0384114583333  0.247395833333333 19.865234375  C 0.0824652777777778 19.6920572916667  0 19.4869791666667  0 19.25  L 0 13.125  C 0 12.8880208333333  0.0824652777777778 12.6829427083333  0.247395833333333 12.509765625  C 0.412326388888889 12.3365885416667  0.607638888888889 12.25  0.833333333333333 12.25  L 6.66666666666667 12.25  C 6.89236111111111 12.25  7.08767361111111 12.3365885416667  7.25260416666667 12.509765625  C 7.41753472222222 12.6829427083333  7.5 12.8880208333333  7.5 13.125  C 7.5 13.3619791666667  7.41753472222222 13.5670572916667  7.25260416666667 13.740234375  L 5.46875 15.61328125  C 6.08506944444445 16.21484375  6.78385416666667 16.6796875  7.56510416666667 17.0078125  C 8.34635416666667 17.3359375  9.15798611111111 17.5  10 17.5  C 11.1631944444444 17.5  12.2482638888889 17.2037760416667  13.2552083333333 16.611328125  C 14.2621527777778 16.0188802083333  15.0694444444444 15.203125  15.6770833333333 14.1640625  C 15.7725694444444 14.0091145833333  16.0026041666667 13.4759114583333  16.3671875 12.564453125  C 16.4366319444444 12.3548177083333  16.5668402777778 12.25  16.7578125 12.25  L 19.2578125 12.25  C 19.3706597222222 12.25  19.4683159722222 12.2932942708333  19.55078125 12.3798828125  Z M 19.7526041666667 1.134765625  C 19.9175347222222 1.30794270833333  20 1.51302083333333  20 1.75  L 20 7.875  C 20 8.11197916666667  19.9175347222222 8.31705729166667  19.7526041666667 8.490234375  C 19.5876736111111 8.66341145833333  19.3923611111111 8.75  19.1666666666667 8.75  L 13.3333333333333 8.75  C 13.1076388888889 8.75  12.9123263888889 8.66341145833333  12.7473958333333 8.490234375  C 12.5824652777778 8.31705729166667  12.5 8.11197916666667  12.5 7.875  C 12.5 7.63802083333333  12.5824652777778 7.43294270833333  12.7473958333333 7.259765625  L 14.5442708333333 5.373046875  C 13.2595486111111 4.12434895833333  11.7447916666667 3.5  10 3.5  C 8.83680555555556 3.5  7.75173611111111 3.79622395833333  6.74479166666667 4.388671875  C 5.73784722222222 4.98111979166667  4.93055555555556 5.796875  4.32291666666667 6.8359375  C 4.22743055555556 6.99088541666667  3.99739583333333 7.52408854166667  3.6328125 8.435546875  C 3.56336805555556 8.64518229166667  3.43315972222222 8.75  3.2421875 8.75  L 0.651041666666667 8.75  C 0.538194444444444 8.75  0.440538194444444 8.70670572916667  0.358072916666667 8.6201171875  C 0.275607638888889 8.53352864583333  0.234375 8.43098958333333  0.234375 8.3125  L 0.234375 8.216796875  C 0.798611111111111 5.77408854166667  1.97048611111111 3.7939453125  3.75 2.2763671875  C 5.52951388888889 0.7587890625  7.61284722222222 0  10 0  C 11.2673611111111 0  12.5 0.252929687500001  13.6979166666667 0.7587890625  C 14.8958333333333 1.2646484375  15.9592013888889 1.97786458333333  16.8880208333333 2.8984375  L 18.5807291666667 1.134765625  C 18.7456597222222 0.961588541666665  18.9409722222222 0.874999999999999  19.1666666666667 0.874999999999999  C 19.3923611111111 0.874999999999999  19.5876736111111 0.961588541666665  19.7526041666667 1.134765625  Z " fill-rule="nonzero" fill="#000000" stroke="none" transform="matrix(1 0 0 1 580 1394 )" />
  </g>
</svg>