<?xml version="1.0" encoding="utf-8"?>
<svg version="1.1" xmlns:xlink="http://www.w3.org/1999/xlink" width="20px" height="21px" xmlns="http://www.w3.org/2000/svg">
  <g transform="matrix(1 0 0 1 -1158 -1328 )">
    <path d="M 15.5859375 11.990234375  C 15.7508680555556 11.8170572916667  15.8333333333333 11.6119791666667  15.8333333333333 11.375  L 15.8333333333333 9.625  C 15.8333333333333 9.38802083333333  15.7508680555556 9.18294270833333  15.5859375 9.009765625  C 15.4210069444444 8.83658854166667  15.2256944444444 8.75  15 9  L 5 9  C 4.77430555555556 8.75  4.57899305555556 8.83658854166667  4.4140625 9.009765625  C 4.24913194444444 9.18294270833333  4.16666666666667 9.38802083333333  4.16666666666667 9.625  L 4.16666666666667 11.375  C 4.16666666666667 11.6119791666667  4.24913194444444 11.8170572916667  4.4140625 11.990234375  C 4.57899305555556 12.1634114583333  4.77430555555556 12.25  5 12  L 15 12  C 15.2256944444444 12.25  15.4210069444444 12.1634114583333  15.5859375 11.990234375  Z M 18.6588541666667 5.2294921875  C 19.5529513888889 6.83821614583333  20 8.59505208333333  20 10.5  C 20 12.4049479166667  19.5529513888889 14.1617838541667  18.6588541666667 15.7705078125  C 17.7647569444444 17.3792317708333  16.5516493055556 18.6529947916667  15.01953125 19.591796875  C 13.4874131944444 20.5305989583333  11.8142361111111 21  10 21  C 8.18576388888889 21  6.51258680555556 20.5305989583333  4.98046875 19.591796875  C 3.44835069444444 18.6529947916667  2.23524305555556 17.3792317708333  1.34114583333333 15.7705078125  C 0.447048611111111 14.1617838541667  0 12.4049479166667  0 10.5  C 0 8.59505208333333  0.447048611111111 6.83821614583333  1.34114583333333 5.2294921875  C 2.23524305555556 3.62076822916667  3.44835069444444 2.34700520833333  4.98046875 1.408203125  C 6.51258680555556 0.469401041666665  8.18576388888889 0  10 0  C 11.8142361111111 0  13.4874131944444 0.469401041666665  15.01953125 1.408203125  C 16.5516493055556 2.34700520833333  17.7647569444444 3.62076822916667  18.6588541666667 5.2294921875  Z " fill-rule="nonzero" fill="#000000" stroke="none" transform="matrix(1 0 0 1 1158 1328 )" />
  </g>
</svg>