<?xml version="1.0" encoding="utf-8"?>
<svg version="1.1" xmlns:xlink="http://www.w3.org/1999/xlink" width="18px" height="17px" xmlns="http://www.w3.org/2000/svg">
  <g transform="matrix(1 0 0 1 -601 -218 )">
    <path d="M 1.38461538461538 13.0535714285714  L 1.38461538461538 15.7857142857143  L 4.5 15.7857142857143  L 4.5 13.0535714285714  L 1.38461538461538 13.0535714285714  Z M 5.19230769230769 13.0535714285714  L 5.19230769230769 15.7857142857143  L 8.65384615384615 15.7857142857143  L 8.65384615384615 13.0535714285714  L 5.19230769230769 13.0535714285714  Z M 1.38461538461538 9.41071428571429  L 1.38461538461538 12.4464285714286  L 4.5 12.4464285714286  L 4.5 9.41071428571429  L 1.38461538461538 9.41071428571429  Z M 5.19230769230769 9.41071428571429  L 5.19230769230769 12.4464285714286  L 8.65384615384615 12.4464285714286  L 8.65384615384615 9.41071428571429  L 5.19230769230769 9.41071428571429  Z M 1.38461538461538 6.07142857142857  L 1.38461538461538 8.80357142857143  L 4.5 8.80357142857143  L 4.5 6.07142857142857  L 1.38461538461538 6.07142857142857  Z M 9.34615384615385 13.0535714285714  L 9.34615384615385 15.7857142857143  L 12.8076923076923 15.7857142857143  L 12.8076923076923 13.0535714285714  L 9.34615384615385 13.0535714285714  Z M 5.19230769230769 6.07142857142857  L 5.19230769230769 8.80357142857143  L 8.65384615384615 8.80357142857143  L 8.65384615384615 6.07142857142857  L 5.19230769230769 6.07142857142857  Z M 13.5 13.0535714285714  L 13.5 15.7857142857143  L 16.6153846153846 15.7857142857143  L 16.6153846153846 13.0535714285714  L 13.5 13.0535714285714  Z M 9.34615384615385 9.41071428571429  L 9.34615384615385 12.4464285714286  L 12.8076923076923 12.4464285714286  L 12.8076923076923 9.41071428571429  L 9.34615384615385 9.41071428571429  Z M 5.43569711538462 4.46344866071429  C 5.50420673076923 4.40336681547619  5.53846153846154 4.33221726190476  5.53846153846154 4.25  L 5.53846153846154 1.51785714285714  C 5.53846153846154 1.43563988095238  5.50420673076923 1.36449032738095  5.43569711538462 1.30440848214286  C 5.3671875 1.24432663690476  5.28605769230769 1.21428571428571  5.19230769230769 1.21428571428571  L 4.5 1.21428571428571  C 4.40625 1.21428571428571  4.32512019230769 1.24432663690476  4.25661057692308 1.30440848214286  C 4.18810096153846 1.36449032738095  4.15384615384615 1.43563988095238  4.15384615384615 1.51785714285714  L 4.15384615384615 4.25  C 4.15384615384615 4.33221726190476  4.18810096153846 4.40336681547619  4.25661057692308 4.46344866071429  C 4.32512019230769 4.52353050595238  4.40625 4.55357142857143  4.5 4.55357142857143  L 5.19230769230769 4.55357142857143  C 5.28605769230769 4.55357142857143  5.3671875 4.52353050595238  5.43569711538462 4.46344866071429  Z M 13.5 9.41071428571429  L 13.5 12.4464285714286  L 16.6153846153846 12.4464285714286  L 16.6153846153846 9.41071428571429  L 13.5 9.41071428571429  Z M 9.34615384615385 6.07142857142857  L 9.34615384615385 8.80357142857143  L 12.8076923076923 8.80357142857143  L 12.8076923076923 6.07142857142857  L 9.34615384615385 6.07142857142857  Z M 13.5 6.07142857142857  L 13.5 8.80357142857143  L 16.6153846153846 8.80357142857143  L 16.6153846153846 6.07142857142857  L 13.5 6.07142857142857  Z M 13.7433894230769 4.46344866071429  C 13.8118990384615 4.40336681547619  13.8461538461538 4.33221726190476  13.8461538461538 4.25  L 13.8461538461538 1.51785714285714  C 13.8461538461538 1.43563988095238  13.8118990384615 1.36449032738095  13.7433894230769 1.30440848214286  C 13.6748798076923 1.24432663690476  13.59375 1.21428571428571  13.5 1.21428571428571  L 12.8076923076923 1.21428571428571  C 12.7139423076923 1.21428571428571  12.6328125 1.24432663690476  12.5643028846154 1.30440848214286  C 12.4957932692308 1.36449032738095  12.4615384615385 1.43563988095238  12.4615384615385 1.51785714285714  L 12.4615384615385 4.25  C 12.4615384615385 4.33221726190476  12.4957932692308 4.40336681547619  12.5643028846154 4.46344866071429  C 12.6328125 4.52353050595238  12.7139423076923 4.55357142857143  12.8076923076923 4.55357142857143  L 13.5 4.55357142857143  C 13.59375 4.55357142857143  13.6748798076923 4.52353050595238  13.7433894230769 4.46344866071429  Z M 17.5889423076923 2.7890625  C 17.8629807692308 3.02938988095238  18 3.31398809523809  18 3.64285714285714  L 18 15.7857142857143  C 18 16.1145833333333  17.8629807692308 16.399181547619  17.5889423076923 16.6395089285714  C 17.3149038461538 16.8798363095238  16.9903846153846 17  16.6153846153846 17  L 1.38461538461538 17  C 1.00961538461538 17  0.685096153846154 16.8798363095238  0.411057692307692 16.6395089285714  C 0.137019230769231 16.399181547619  0 16.1145833333333  0 15.7857142857143  L 0 3.64285714285714  C 0 3.31398809523809  0.137019230769231 3.02938988095238  0.411057692307692 2.7890625  C 0.685096153846154 2.54873511904762  1.00961538461538 2.42857142857143  1.38461538461538 2.42857142857143  L 2.76923076923077 2.42857142857143  L 2.76923076923077 1.51785714285714  C 2.76923076923077 1.10044642857143  2.93870192307692 0.743117559523809  3.27764423076923 0.445870535714286  C 3.61658653846154 0.148623511904762  4.02403846153846 0  4.5 0  L 5.19230769230769 0  C 5.66826923076923 0  6.07572115384616 0.148623511904762  6.41466346153846 0.445870535714286  C 6.75360576923077 0.743117559523809  6.92307692307692 1.10044642857143  6.92307692307692 1.51785714285714  L 6.92307692307692 2.42857142857143  L 11.0769230769231 2.42857142857143  L 11.0769230769231 1.51785714285714  C 11.0769230769231 1.10044642857143  11.2463942307692 0.743117559523809  11.5853365384615 0.445870535714286  C 11.9242788461538 0.148623511904762  12.3317307692308 0  12.8076923076923 0  L 13.5 0  C 13.9759615384615 0  14.3834134615385 0.148623511904762  14.7223557692308 0.445870535714286  C 15.0612980769231 0.743117559523809  15.2307692307692 1.10044642857143  15.2307692307692 1.51785714285714  L 15.2307692307692 2.42857142857143  L 16.6153846153846 2.42857142857143  C 16.9903846153846 2.42857142857143  17.3149038461538 2.54873511904762  17.5889423076923 2.7890625  Z " fill-rule="nonzero" fill="#797979" stroke="none" transform="matrix(1 0 0 1 601 218 )" />
  </g>
</svg>