<?xml version="1.0" encoding="utf-8"?>
<svg version="1.1" xmlns:xlink="http://www.w3.org/1999/xlink" width="12px" height="12px" viewBox="197 226.5  12 12" xmlns="http://www.w3.org/2000/svg">
  <path d="M 203 226.5  C 206.36 226.5  209 229.14  209 232.5  C 209 235.86  206.36 238.5  203 238.5  C 199.64 238.5  197 235.86  197 232.5  C 197 229.14  199.64 226.5  203 226.5  Z " fill-rule="nonzero" fill="#f0f0f0" stroke="none" />
  <path d="M 203 227  C 206.08 227  208.5 229.42  208.5 232.5  C 208.5 235.58  206.08 238  203 238  C 199.92 238  197.5 235.58  197.5 232.5  C 197.5 229.42  199.92 227  203 227  Z " stroke-width="1" stroke="#797979" fill="none" />
  <path d="M 203 235.5  C 201.32 235.5  200 234.18  200 232.5  C 200 230.82  201.32 229.5  203 229.5  C 204.68 229.5  206 230.82  206 232.5  C 206 234.18  204.68 235.5  203 235.5  " fill-rule="nonzero" fill="#797979" stroke="none" />
</svg>