<?xml version="1.0" encoding="utf-8"?>
<svg version="1.1" xmlns:xlink="http://www.w3.org/1999/xlink" width="30px" height="20px" xmlns="http://www.w3.org/2000/svg">
  <g transform="matrix(1 0 0 1 -1124 -264 )">
    <path d="M 22.2739955357143 15.6684027777778  C 24.51171875 14.2621527777778  26.3727678571429 12.3726851851852  27.8571428571429 10  C 26.1607142857143 7.26851851851852  24.0345982142857 5.22569444444444  21.4787946428571 3.87152777777778  C 22.1595982142857 5.07523148148148  22.5 6.37731481481481  22.5 7.77777777777778  C 22.5 9.91898148148148  21.7661830357143 11.7505787037037  20.2985491071429 13.2725694444444  C 18.8309151785714 14.7945601851852  17.0647321428571 15.5555555555556  15 15.5555555555556  C 12.9352678571429 15.5555555555556  11.1690848214286 14.7945601851852  9.70145089285714 13.2725694444444  C 8.23381696428572 11.7505787037037  7.5 9.91898148148148  7.5 7.77777777777778  C 7.5 6.37731481481481  7.84040178571429 5.07523148148148  8.52120535714286 3.87152777777778  C 5.96540178571429 5.22569444444444  3.83928571428571 7.26851851851852  2.14285714285714 10  C 3.62723214285714 12.3726851851852  5.48828125 14.2621527777778  7.72600446428571 15.6684027777778  C 9.96372767857143 17.0746527777778  12.3883928571429 17.7777777777778  15 17.7777777777778  C 17.6116071428571 17.7777777777778  20.0362723214286 17.0746527777778  22.2739955357143 15.6684027777778  Z M 15.5691964285714 3.92361111111111  C 15.7254464285714 3.76157407407407  15.8035714285714 3.56481481481481  15.8035714285714 3.33333333333333  C 15.8035714285714 3.10185185185185  15.7254464285714 2.90509259259259  15.5691964285714 2.74305555555556  C 15.4129464285714 2.58101851851852  15.2232142857143 2.5  15 2.5  C 13.6049107142857 2.5  12.4079241071429 3.01793981481481  11.4090401785714 4.05381944444444  C 10.41015625 5.08969907407407  9.91071428571428 6.33101851851852  9.91071428571428 7.77777777777778  C 9.91071428571428 8.00925925925926  9.98883928571429 8.20601851851852  10.1450892857143 8.36805555555556  C 10.3013392857143 8.53009259259259  10.4910714285714 8.61111111111111  10.7142857142857 8.61111111111111  C 10.9375 8.61111111111111  11.1272321428571 8.53009259259259  11.2834821428571 8.36805555555556  C 11.4397321428571 8.20601851851852  11.5178571428571 8.00925925925926  11.5178571428571 7.77777777777778  C 11.5178571428571 6.78240740740741  11.8582589285714 5.93171296296296  12.5390625 5.22569444444444  C 13.2198660714286 4.51967592592593  14.0401785714286 4.16666666666667  15 4.16666666666667  C 15.2232142857143 4.16666666666667  15.4129464285714 4.08564814814815  15.5691964285714 3.92361111111111  Z M 29.6651785714286 8.80208333333333  C 29.8883928571429 9.20717592592593  30 9.60648148148148  30 10  C 30 10.3935185185185  29.8883928571429 10.7928240740741  29.6651785714286 11.1979166666667  C 28.1026785714286 13.8599537037037  26.0016741071429 15.9924768518519  23.3621651785714 17.5954861111111  C 20.72265625 19.1984953703704  17.9352678571429 20  15 20  C 12.0647321428571 20  9.27734375 19.1956018518519  6.63783482142857 17.5868055555556  C 3.99832589285714 15.9780092592593  1.89732142857143 13.8483796296296  0.334821428571429 11.1979166666667  C 0.111607142857143 10.7928240740741  0 10.3935185185185  0 10  C 0 9.60648148148148  0.111607142857143 9.20717592592593  0.334821428571429 8.80208333333333  C 1.89732142857143 6.15162037037037  3.99832589285714 4.02199074074074  6.63783482142857 2.41319444444444  C 9.27734375 0.804398148148147  12.0647321428571 0  15 0  C 17.9352678571429 0  20.72265625 0.804398148148147  23.3621651785714 2.41319444444444  C 26.0016741071429 4.02199074074074  28.1026785714286 6.15162037037037  29.6651785714286 8.80208333333333  Z " fill-rule="nonzero" fill="#000000" stroke="none" transform="matrix(1 0 0 1 1124 264 )" />
  </g>
</svg>