<?xml version="1.0" encoding="utf-8"?>
<svg version="1.1" xmlns:xlink="http://www.w3.org/1999/xlink" width="30px" height="28px" xmlns="http://www.w3.org/2000/svg">
  <g transform="matrix(1 0 0 1 -1127 -256 )">
    <path d="M 22.734375 25.3203125  C 22.9627403846154 25.0894097222222  23.0769230769231 24.8159722222222  23.0769230769231 24.5  C 23.0769230769231 24.1840277777778  22.9627403846154 23.9105902777778  22.734375 23.6796875  C 22.5060096153846 23.4487847222222  22.2355769230769 23.3333333333333  21.9230769230769 23.3333333333333  C 21.6105769230769 23.3333333333333  21.3401442307692 23.4487847222222  21.1117788461538 23.6796875  C 20.8834134615385 23.9105902777778  20.7692307692308 24.1840277777778  20.7692307692308 24.5  C 20.7692307692308 24.8159722222222  20.8834134615385 25.0894097222222  21.1117788461538 25.3203125  C 21.3401442307692 25.5512152777778  21.6105769230769 25.6666666666667  21.9230769230769 25.6666666666667  C 22.2355769230769 25.6666666666667  22.5060096153846 25.5512152777778  22.734375 25.3203125  Z M 27.3497596153846 25.3203125  C 27.578125 25.0894097222222  27.6923076923077 24.8159722222222  27.6923076923077 24.5  C 27.6923076923077 24.1840277777778  27.578125 23.9105902777778  27.3497596153846 23.6796875  C 27.1213942307692 23.4487847222222  26.8509615384615 23.3333333333333  26.5384615384615 23.3333333333333  C 26.2259615384615 23.3333333333333  25.9555288461538 23.4487847222222  25.7271634615385 23.6796875  C 25.4987980769231 23.9105902777778  25.3846153846154 24.1840277777778  25.3846153846154 24.5  C 25.3846153846154 24.8159722222222  25.4987980769231 25.0894097222222  25.7271634615385 25.3203125  C 25.9555288461538 25.5512152777778  26.2259615384615 25.6666666666667  26.5384615384615 25.6666666666667  C 26.8509615384615 25.6666666666667  27.1213942307692 25.5512152777778  27.3497596153846 25.3203125  Z M 29.4951923076923 19.1770833333333  C 29.8317307692308 19.5173611111111  30 19.9305555555556  30 20.4166666666667  L 30 26.25  C 30 26.7361111111111  29.8317307692308 27.1493055555556  29.4951923076923 27.4895833333333  C 29.1586538461539 27.8298611111111  28.75 28  28.2692307692308 28  L 1.73076923076923 28  C 1.25 28  0.841346153846154 27.8298611111111  0.504807692307692 27.4895833333333  C 0.168269230769231 27.1493055555556  0 26.7361111111111  0 26.25  L 0 20.4166666666667  C 0 19.9305555555556  0.168269230769231 19.5173611111111  0.504807692307692 19.1770833333333  C 0.841346153846154 18.8368055555556  1.25 18.6666666666667  1.73076923076923 18.6666666666667  L 10.1141826923077 18.6666666666667  L 12.5480769230769 21.1458333333333  C 13.2451923076923 21.8263888888889  14.0625 22.1666666666667  15 22.1666666666667  C 15.9375 22.1666666666667  16.7548076923077 21.8263888888889  17.4519230769231 21.1458333333333  L 19.9038461538462 18.6666666666667  L 28.2692307692308 18.6666666666667  C 28.75 18.6666666666667  29.1586538461539 18.8368055555556  29.4951923076923 19.1770833333333  Z M 23.0769230769231 9.33333333333333  C 23.5817307692308 9.33333333333333  23.9362980769231 9.5703125  24.140625 10.0442708333333  C 24.3449519230769 10.5425347222222  24.2608173076923 10.9678819444444  23.8882211538462 11.3203125  L 15.8112980769231 19.4869791666667  C 15.5949519230769 19.7178819444444  15.3245192307692 19.8333333333333  15 19.8333333333333  C 14.6754807692308 19.8333333333333  14.4050480769231 19.7178819444444  14.1887019230769 19.4869791666667  L 6.11177884615385 11.3203125  C 5.73918269230769 10.9678819444444  5.65504807692308 10.5425347222222  5.859375 10.0442708333333  C 6.06370192307692 9.5703125  6.41826923076923 9.33333333333333  6.92307692307692 9.33333333333333  L 11.5384615384615 9.33333333333333  L 11.5384615384615 1.16666666666667  C 11.5384615384615 0.850694444444441  11.6526442307692 0.577256944444441  11.8810096153846 0.346354166666666  C 12.109375 0.115451388888891  12.3798076923077 0  12.6923076923077 0  L 17.3076923076923 0  C 17.6201923076923 0  17.890625 0.115451388888891  18.1189903846154 0.346354166666666  C 18.3473557692308 0.577256944444441  18.4615384615385 0.850694444444441  18.4615384615385 1.16666666666667  L 18.4615384615385 9.33333333333333  L 23.0769230769231 9.33333333333333  Z " fill-rule="nonzero" fill="#000000" stroke="none" transform="matrix(1 0 0 1 1127 256 )" />
  </g>
</svg>