<?xml version="1.0" encoding="utf-8"?>
<svg version="1.1" xmlns:xlink="http://www.w3.org/1999/xlink" width="30px" height="29px" xmlns="http://www.w3.org/2000/svg">
  <g transform="matrix(1 0 0 1 -230 -142 )">
    <path d="M 22.734375 26.335625  C 22.9627403846154 26.1060416666667  23.0769230769231 25.8341666666667  23.0769230769231 25.52  C 23.0769230769231 25.2058333333333  22.9627403846154 24.9339583333333  22.734375 24.704375  C 22.5060096153846 24.4747916666667  22.2355769230769 24.36  21.9230769230769 24.36  C 21.6105769230769 24.36  21.3401442307692 24.4747916666667  21.1117788461538 24.704375  C 20.8834134615385 24.9339583333333  20.7692307692308 25.2058333333333  20.7692307692308 25.52  C 20.7692307692308 25.8341666666667  20.8834134615385 26.1060416666667  21.1117788461538 26.335625  C 21.3401442307692 26.5652083333333  21.6105769230769 26.68  21.9230769230769 26.68  C 22.2355769230769 26.68  22.5060096153846 26.5652083333333  22.734375 26.335625  Z M 27.3497596153846 26.335625  C 27.578125 26.1060416666667  27.6923076923077 25.8341666666667  27.6923076923077 25.52  C 27.6923076923077 25.2058333333333  27.578125 24.9339583333333  27.3497596153846 24.704375  C 27.1213942307692 24.4747916666667  26.8509615384615 24.36  26.5384615384615 24.36  C 26.2259615384615 24.36  25.9555288461538 24.4747916666667  25.7271634615385 24.704375  C 25.4987980769231 24.9339583333333  25.3846153846154 25.2058333333333  25.3846153846154 25.52  C 25.3846153846154 25.8341666666667  25.4987980769231 26.1060416666667  25.7271634615385 26.335625  C 25.9555288461538 26.5652083333333  26.2259615384615 26.68  26.5384615384615 26.68  C 26.8509615384615 26.68  27.1213942307692 26.5652083333333  27.3497596153846 26.335625  Z M 29.4951923076923 20.2275  C 29.8317307692308 20.5658333333333  30 20.9766666666667  30 21.46  L 30 27.26  C 30 27.7433333333333  29.8317307692308 28.1541666666667  29.4951923076923 28.4925  C 29.1586538461539 28.8308333333333  28.75 29  28.2692307692308 29  L 1.73076923076923 29  C 1.25 29  0.841346153846154 28.8308333333333  0.504807692307692 28.4925  C 0.168269230769231 28.1541666666667  0 27.7433333333333  0 27.26  L 0 21.46  C 0 20.9766666666667  0.168269230769231 20.5658333333333  0.504807692307692 20.2275  C 0.841346153846154 19.8891666666667  1.25 19.72  1.73076923076923 19.72  L 9.42908653846154 19.72  C 9.68149038461539 20.3966666666667  10.1051682692308 20.9525  10.7001201923077 21.3875  C 11.2950721153846 21.8225  11.9591346153846 22.04  12.6923076923077 22.04  L 17.3076923076923 22.04  C 18.0408653846154 22.04  18.7049278846154 21.8225  19.2998798076923 21.3875  C 19.8948317307692 20.9525  20.3185096153846 20.3966666666667  20.5709134615385 19.72  L 28.2692307692308 19.72  C 28.75 19.72  29.1586538461539 19.8891666666667  29.4951923076923 20.2275  Z M 23.8882211538462 8.464375  C 24.2608173076923 8.826875  24.3449519230769 9.24375  24.140625 9.715  C 23.9362980769231 10.1983333333333  23.5817307692308 10.44  23.0769230769231 10.44  L 18.4615384615385 10.44  L 18.4615384615385 18.56  C 18.4615384615385 18.8741666666667  18.3473557692308 19.1460416666667  18.1189903846154 19.375625  C 17.890625 19.6052083333333  17.6201923076923 19.72  17.3076923076923 19.72  L 12.6923076923077 19.72  C 12.3798076923077 19.72  12.109375 19.6052083333333  11.8810096153846 19.375625  C 11.6526442307692 19.1460416666667  11.5384615384615 18.8741666666667  11.5384615384615 18.56  L 11.5384615384615 10.44  L 6.92307692307692 10.44  C 6.41826923076923 10.44  6.06370192307692 10.1983333333333  5.859375 9.715  C 5.65504807692308 9.24375  5.73918269230769 8.826875  6.11177884615385 8.464375  L 14.1887019230769 0.344374999999999  C 14.4050480769231 0.114791666666665  14.6754807692308 0  15 0  C 15.3245192307692 0  15.5949519230769 0.114791666666665  15.8112980769231 0.344374999999999  L 23.8882211538462 8.464375  Z " fill-rule="nonzero" fill="#000000" stroke="none" transform="matrix(1 0 0 1 230 142 )" />
  </g>
</svg>