<?xml version="1.0" encoding="utf-8"?>
<svg version="1.1" xmlns:xlink="http://www.w3.org/1999/xlink" width="30px" height="36px" xmlns="http://www.w3.org/2000/svg">
  <g transform="matrix(1 0 0 1 -1101 -38 )">
    <path d="M 29.80078125 26.02734375  C 29.93359375 27.20703125  30 28.4609375  30 29.7890625  C 30 31.4921875  29.51171875 32.953125  28.53515625 34.171875  C 27.55859375 35.390625  26.3828125 36  25.0078125 36  L 4.9921875 36  C 3.6171875 36  2.44140625 35.390625  1.46484375 34.171875  C 0.48828125 32.953125  0 31.4921875  0 29.7890625  C 0 28.4609375  0.0664062500000002 27.20703125  0.19921875 26.02734375  C 0.33203125 24.84765625  0.578125 23.66015625  0.9375 22.46484375  C 1.296875 21.26953125  1.75390625 20.24609375  2.30859375 19.39453125  C 2.86328125 18.54296875  3.59765625 17.84765625  4.51171875 17.30859375  C 5.42578125 16.76953125  6.4765625 16.5  7.6640625 16.5  C 9.7109375 18.5  12.15625 19.5  15 19.5  C 17.84375 19.5  20.2890625 18.5  22.3359375 16.5  C 23.5234375 16.5  24.57421875 16.76953125  25.48828125 17.30859375  C 26.40234375 17.84765625  27.13671875 18.54296875  27.69140625 19.39453125  C 28.24609375 20.24609375  28.703125 21.26953125  29.0625 22.46484375  C 29.421875 23.66015625  29.66796875 24.84765625  29.80078125 26.02734375  Z M 21.36328125 2.63671875  C 23.12109375 4.39453125  24 6.515625  24 9  C 24 11.484375  23.12109375 13.60546875  21.36328125 15.36328125  C 19.60546875 17.12109375  17.484375 18  15 18  C 12.515625 18  10.39453125 17.12109375  8.63671875 15.36328125  C 6.87890625 13.60546875  6 11.484375  6 9  C 6 6.515625  6.87890625 4.39453125  8.63671875 2.63671875  C 10.39453125 0.87890625  12.515625 0  15 0  C 17.484375 0  19.60546875 0.87890625  21.36328125 2.63671875  Z " fill-rule="nonzero" fill="#333333" stroke="none" transform="matrix(1 0 0 1 1101 38 )" />
  </g>
</svg>