<?xml version="1.0" encoding="utf-8"?>
<svg version="1.1" xmlns:xlink="http://www.w3.org/1999/xlink" width="15px" height="20px" xmlns="http://www.w3.org/2000/svg">
  <g transform="matrix(1 0 0 1 -615 -1119 )">
    <path d="M 14.6630859375 11.7903645833333  C 14.7249348958333 11.8728298611111  14.755859375 11.9704861111111  14.755859375 12.0833333333333  C 14.755859375 12.1267361111111  14.7526041666667 12.1571180555556  14.74609375 12.1744791666667  C 14.3294270833333 14.5008680555556  13.45703125 16.38671875  12.12890625 17.83203125  C 10.80078125 19.27734375  9.24479166666667 20  7.4609375 20  C 6.51041666666667 20  5.5908203125 19.7612847222222  4.7021484375 19.2838541666667  C 3.8134765625 18.8064236111111  3.02083333333333 18.125  2.32421875 17.2395833333333  L 1.064453125 18.9192708333333  C 0.940755208333333 19.0842013888889  0.794270833333333 19.1666666666667  0.625 19.1666666666667  C 0.455729166666667 19.1666666666667  0.309244791666667 19.0842013888889  0.185546875 18.9192708333333  C 0.0618489583333333 18.7543402777778  0 18.5590277777778  0 18.3333333333333  L 0 12.5  C 0 12.2743055555556  0.0618489583333333 12.0789930555556  0.185546875 11.9140625  C 0.309244791666667 11.7491319444444  0.455729166666667 11.6666666666667  0.625 11.6666666666667  L 5 11.6666666666667  C 5.16927083333333 11.6666666666667  5.31575520833333 11.7491319444444  5.439453125 11.9140625  C 5.56315104166667 12.0789930555556  5.625 12.2743055555556  5.625 12.5  C 5.625 12.7256944444444  5.56315104166667 12.9210069444444  5.439453125 13.0859375  L 4.1015625 14.8697916666667  C 4.56380208333333 15.4427083333333  5.087890625 15.8854166666667  5.673828125 16.1979166666667  C 6.259765625 16.5104166666667  6.86848958333333 16.6666666666667  7.5 16.6666666666667  C 8.37239583333333 16.6666666666667  9.18619791666667 16.3845486111111  9.94140625 15.8203125  C 10.6966145833333 15.2560763888889  11.3020833333333 14.4791666666667  11.7578125 13.4895833333333  C 11.8294270833333 13.3420138888889  12.001953125 12.8342013888889  12.275390625 11.9661458333333  C 12.3274739583333 11.7664930555556  12.4251302083333 11.6666666666667  12.568359375 11.6666666666667  L 14.443359375 11.6666666666667  C 14.5279947916667 11.6666666666667  14.6012369791667 11.7078993055556  14.6630859375 11.7903645833333  Z M 14.814453125 1.08072916666667  C 14.9381510416667 1.24565972222222  15 1.44097222222222  15 1.66666666666667  L 15 7.5  C 15 7.72569444444444  14.9381510416667 7.92100694444444  14.814453125 8.0859375  C 14.6907552083333 8.25086805555556  14.5442708333333 8.33333333333333  14.375 8.33333333333333  L 10 8.33333333333333  C 9.83072916666667 8.33333333333333  9.68424479166667 8.25086805555556  9.560546875 8.0859375  C 9.43684895833333 7.92100694444444  9.375 7.72569444444444  9.375 7.5  C 9.375 7.27430555555555  9.43684895833333 7.07899305555555  9.560546875 6.9140625  L 10.908203125 5.1171875  C 9.94466145833334 3.92795138888889  8.80859375 3.33333333333333  7.5 3.33333333333333  C 6.62760416666667 3.33333333333333  5.81380208333333 3.61545138888889  5.05859375 4.1796875  C 4.30338541666667 4.74392361111111  3.69791666666667 5.52083333333333  3.2421875 6.51041666666667  C 3.17057291666667 6.65798611111111  2.998046875 7.16579861111111  2.724609375 8.03385416666667  C 2.67252604166667 8.23350694444444  2.57486979166667 8.33333333333333  2.431640625 8.33333333333333  L 0.48828125 8.33333333333333  C 0.403645833333333 8.33333333333333  0.330403645833333 8.29210069444444  0.2685546875 8.20963541666667  C 0.206705729166667 8.12717013888889  0.17578125 8.02951388888889  0.17578125 7.91666666666667  L 0.17578125 7.82552083333333  C 0.598958333333333 5.49913194444444  1.47786458333333 3.61328125  2.8125 2.16796875  C 4.14713541666667 0.72265625  5.70963541666667 0  7.5 0  C 8.45052083333333 0  9.375 0.240885416666667  10.2734375 0.72265625  C 11.171875 1.20442708333333  11.9694010416667 1.88368055555555  12.666015625 2.76041666666667  L 13.935546875 1.08072916666667  C 14.0592447916667 0.915798611111109  14.2057291666667 0.833333333333333  14.375 0.833333333333333  C 14.5442708333333 0.833333333333333  14.6907552083333 0.915798611111109  14.814453125 1.08072916666667  Z " fill-rule="nonzero" fill="#000000" stroke="none" transform="matrix(1 0 0 1 615 1119 )" />
  </g>
</svg>