<?xml version="1.0" encoding="utf-8"?>
<svg version="1.1" xmlns:xlink="http://www.w3.org/1999/xlink" width="9px" height="13px" xmlns="http://www.w3.org/2000/svg">
  <g transform="matrix(1 0 0 1 -535 -1121 )">
    <path d="M 5.32919254658385 6.20040080160321  C 5.39130434782609 6.2872411489646  5.42236024844721 6.38710754843019  5.42236024844721 6.5  C 5.42236024844721 6.61289245156981  5.39130434782609 6.7127588510354  5.32919254658385 6.79959919839679  L 0.987577639751553 12.8697394789579  C 0.925465838509317 12.9565798263193  0.854037267080745 13  0.773291925465839 13  C 0.692546583850932 13  0.62111801242236 12.9565798263193  0.559006211180124 12.8697394789579  L 0.093167701863354 12.2184368737475  C 0.031055900621118 12.1315965263861  0 12.0317301269205  0 11.9188376753507  C 0 11.8059452237809  0.031055900621118 11.7060788243153  0.093167701863354 11.6192384769539  L 3.75465838509317 6.5  L 0.093167701863354 1.38076152304609  C 0.031055900621118 1.2939211756847  0 1.1940547762191  0 1.0811623246493  C 0 0.968269873079491  0.031055900621118 0.868403473613893  0.093167701863354 0.781563126252504  L 0.559006211180124 0.130260521042084  C 0.62111801242236 0.0434201736806943  0.692546583850932 0  0.773291925465839 0  C 0.854037267080745 0  0.925465838509317 0.0434201736806943  0.987577639751553 0.130260521042084  L 5.32919254658385 6.20040080160321  Z M 8.90683229813665 6.20040080160321  C 8.96894409937888 6.2872411489646  9 6.38710754843019  9 6.5  C 9 6.61289245156981  8.96894409937888 6.7127588510354  8.90683229813665 6.79959919839679  L 4.56521739130435 12.8697394789579  C 4.50310559006211 12.9565798263193  4.43167701863354 13  4.35093167701863 13  C 4.27018633540373 13  4.19875776397516 12.9565798263193  4.13664596273292 12.8697394789579  L 3.67080745341615 12.2184368737475  C 3.60869565217391 12.1315965263861  3.57763975155279 12.0317301269205  3.57763975155279 11.9188376753507  C 3.57763975155279 11.8059452237809  3.60869565217391 11.7060788243153  3.67080745341615 11.6192384769539  L 7.33229813664596 6.5  L 3.67080745341615 1.38076152304609  C 3.60869565217391 1.2939211756847  3.57763975155279 1.1940547762191  3.57763975155279 1.0811623246493  C 3.57763975155279 0.968269873079491  3.60869565217391 0.868403473613893  3.67080745341615 0.781563126252504  L 4.13664596273292 0.130260521042084  C 4.19875776397516 0.0434201736806943  4.27018633540373 0  4.35093167701863 0  C 4.43167701863354 0  4.50310559006211 0.0434201736806943  4.56521739130435 0.130260521042084  L 8.90683229813665 6.20040080160321  Z " fill-rule="nonzero" fill="#000000" stroke="none" transform="matrix(1 0 0 1 535 1121 )" />
  </g>
</svg>