<?xml version="1.0" encoding="utf-8"?>
<svg version="1.1" xmlns:xlink="http://www.w3.org/1999/xlink" width="9px" height="13px" xmlns="http://www.w3.org/2000/svg">
  <g transform="matrix(1 0 0 1 -356 -1124 )">
    <path d="M 5.32919254658385 11.6192384769539  C 5.39130434782609 11.7060788243153  5.42236024844721 11.8059452237809  5.42236024844721 11.9188376753507  C 5.42236024844721 12.0317301269205  5.39130434782609 12.1315965263861  5.32919254658385 12.2184368737475  L 4.86335403726708 12.8697394789579  C 4.80124223602485 12.9565798263193  4.72981366459627 13  4.64906832298137 13  C 4.56832298136646 13  4.49689440993789 12.9565798263193  4.43478260869565 12.8697394789579  L 0.093167701863354 6.79959919839679  C 0.031055900621118 6.7127588510354  0 6.61289245156981  0 6.5  C 0 6.38710754843019  0.031055900621118 6.2872411489646  0.093167701863354 6.20040080160321  L 4.43478260869565 0.130260521042084  C 4.49689440993789 0.0434201736806943  4.56832298136646 0  4.64906832298137 0  C 4.72981366459627 0  4.80124223602485 0.0434201736806943  4.86335403726708 0.130260521042084  L 5.32919254658385 0.781563126252504  C 5.39130434782609 0.868403473613893  5.42236024844721 0.968269873079491  5.42236024844721 1.0811623246493  C 5.42236024844721 1.1940547762191  5.39130434782609 1.2939211756847  5.32919254658385 1.38076152304609  L 1.66770186335404 6.5  L 5.32919254658385 11.6192384769539  Z M 8.90683229813665 11.6192384769539  C 8.96894409937888 11.7060788243153  9 11.8059452237809  9 11.9188376753507  C 9 12.0317301269205  8.96894409937888 12.1315965263861  8.90683229813665 12.2184368737475  L 8.44099378881988 12.8697394789579  C 8.37888198757764 12.9565798263193  8.30745341614907 13  8.22670807453416 13  C 8.14596273291926 13  8.07453416149068 12.9565798263193  8.01242236024845 12.8697394789579  L 3.67080745341615 6.79959919839679  C 3.60869565217391 6.7127588510354  3.5776397515528 6.61289245156981  3.57763975155279 6.5  C 3.5776397515528 6.38710754843019  3.60869565217391 6.2872411489646  3.67080745341615 6.20040080160321  L 8.01242236024845 0.130260521042084  C 8.07453416149068 0.0434201736806943  8.14596273291926 0  8.22670807453416 0  C 8.30745341614907 0  8.37888198757764 0.0434201736806943  8.44099378881988 0.130260521042084  L 8.90683229813665 0.781563126252504  C 8.96894409937888 0.868403473613893  9 0.968269873079491  9 1.0811623246493  C 9 1.1940547762191  8.96894409937888 1.2939211756847  8.90683229813665 1.38076152304609  L 5.24534161490683 6.5  L 8.90683229813665 11.6192384769539  Z " fill-rule="nonzero" fill="#000000" stroke="none" transform="matrix(1 0 0 1 356 1124 )" />
  </g>
</svg>