<?xml version="1.0" encoding="utf-8"?>
<svg version="1.1" xmlns:xlink="http://www.w3.org/1999/xlink" width="15px" height="13px" xmlns="http://www.w3.org/2000/svg">
  <g transform="matrix(1 0 0 1 -495 -351 )">
    <path d="M 8.88198757763975 6.20040080160321  C 8.98550724637681 6.2872411489646  9.03726708074534 6.38710754843019  9.03726708074534 6.5  C 9.03726708074534 6.61289245156981  8.98550724637681 6.7127588510354  8.88198757763975 6.79959919839679  L 1.64596273291925 12.8697394789579  C 1.54244306418219 12.9565798263193  1.42339544513458 13  1.2888198757764 13  C 1.15424430641822 13  1.0351966873706 12.9565798263193  0.93167701863354 12.8697394789579  L 0.15527950310559 12.2184368737475  C 0.0517598343685301 12.1315965263861  0 12.0317301269205  0 11.9188376753507  C 0 11.8059452237809  0.0517598343685301 11.7060788243153  0.15527950310559 11.6192384769539  L 6.25776397515528 6.5  L 0.15527950310559 1.38076152304609  C 0.0517598343685301 1.2939211756847  0 1.1940547762191  0 1.0811623246493  C 0 0.968269873079491  0.0517598343685301 0.868403473613893  0.15527950310559 0.781563126252504  L 0.93167701863354 0.130260521042084  C 1.0351966873706 0.0434201736806943  1.15424430641822 0  1.2888198757764 0  C 1.42339544513458 0  1.54244306418219 0.0434201736806943  1.64596273291925 0.130260521042084  L 8.88198757763975 6.20040080160321  Z M 14.8447204968944 6.20040080160321  C 14.9482401656315 6.2872411489646  15 6.38710754843019  15 6.5  C 15 6.61289245156981  14.9482401656315 6.7127588510354  14.8447204968944 6.79959919839679  L 7.60869565217391 12.8697394789579  C 7.50517598343685 12.9565798263193  7.38612836438923 13  7.25155279503106 13  C 7.11697722567288 13  6.99792960662526 12.9565798263193  6.8944099378882 12.8697394789579  L 6.11801242236025 12.2184368737475  C 6.01449275362319 12.1315965263861  5.96273291925466 12.0317301269205  5.96273291925466 11.9188376753507  C 5.96273291925466 11.8059452237809  6.01449275362319 11.7060788243153  6.11801242236025 11.6192384769539  L 12.2204968944099 6.5  L 6.11801242236025 1.38076152304609  C 6.01449275362319 1.2939211756847  5.96273291925466 1.1940547762191  5.96273291925466 1.0811623246493  C 5.96273291925466 0.968269873079491  6.01449275362319 0.868403473613893  6.11801242236025 0.781563126252504  L 6.8944099378882 0.130260521042084  C 6.99792960662526 0.0434201736806943  7.11697722567288 0  7.25155279503106 0  C 7.38612836438923 0  7.50517598343685 0.0434201736806943  7.60869565217391 0.130260521042084  L 14.8447204968944 6.20040080160321  Z " fill-rule="nonzero" fill="#000000" stroke="none" transform="matrix(1 0 0 1 495 351 )" />
  </g>
</svg>