<?xml version="1.0" encoding="utf-8"?>
<svg version="1.1" xmlns:xlink="http://www.w3.org/1999/xlink" width="15px" height="13px" xmlns="http://www.w3.org/2000/svg">
  <g transform="matrix(1 0 0 1 -461 -351 )">
    <path d="M 14.7422680412371 6.20040080160321  C 14.914089347079 6.2872411489646  15 6.38710754843019  15 6.5  C 15 6.61289245156981  14.914089347079 6.7127588510354  14.7422680412371 6.79959919839679  L 2.7319587628866 12.8697394789579  C 2.56013745704467 12.9565798263193  2.36254295532646 13  2.13917525773196 13  C 1.91580756013746 13  1.71821305841924 12.9565798263193  1.54639175257732 12.8697394789579  L 0.257731958762887 12.2184368737475  C 0.0859106529209623 12.1315965263861  0 12.0317301269205  0 11.9188376753507  C 0 11.8059452237809  0.0859106529209623 11.7060788243153  0.257731958762887 11.6192384769539  L 10.3865979381443 6.5  L 0.257731958762887 1.38076152304609  C 0.0859106529209623 1.2939211756847  0 1.1940547762191  0 1.0811623246493  C 0 0.968269873079491  0.0859106529209623 0.868403473613893  0.257731958762887 0.781563126252504  L 1.54639175257732 0.130260521042084  C 1.71821305841924 0.0434201736806943  1.91580756013746 0  2.13917525773196 0  C 2.36254295532646 0  2.56013745704467 0.0434201736806943  2.7319587628866 0.130260521042084  L 14.7422680412371 6.20040080160321  Z " fill-rule="nonzero" fill="#000000" stroke="none" transform="matrix(1 0 0 1 461 351 )" />
  </g>
</svg>