<?xml version="1.0" encoding="utf-8"?>
<svg version="1.1" xmlns:xlink="http://www.w3.org/1999/xlink" width="23px" height="20px" xmlns="http://www.w3.org/2000/svg">
  <g transform="matrix(1 0 0 1 -621 -349 )">
    <path d="M 22.4833984375 11.7903645833333  C 22.5782335069444 11.8728298611111  22.6256510416667 11.9704861111111  22.6256510416667 12.0833333333333  C 22.6256510416667 12.1267361111111  22.6206597222222 12.1571180555556  22.6106770833333 12.1744791666667  C 21.9717881944444 14.5008680555556  20.6341145833333 16.38671875  18.59765625 17.83203125  C 16.5611979166667 19.27734375  14.1753472222222 20  11.4401041666667 20  C 9.98263888888889 20  8.57259114583333 19.7612847222222  7.2099609375 19.2838541666667  C 5.84733072916667 18.8064236111111  4.63194444444445 18.125  3.56380208333333 17.2395833333333  L 1.63216145833333 18.9192708333333  C 1.44249131944444 19.0842013888889  1.21788194444444 19.1666666666667  0.958333333333333 19.1666666666667  C 0.698784722222222 19.1666666666667  0.474175347222222 19.0842013888889  0.284505208333333 18.9192708333333  C 0.0948350694444444 18.7543402777778  0 18.5590277777778  0 18.3333333333333  L 0 12.5  C 0 12.2743055555556  0.0948350694444444 12.0789930555556  0.284505208333333 11.9140625  C 0.474175347222222 11.7491319444444  0.698784722222222 11.6666666666667  0.958333333333333 11.6666666666667  L 7.66666666666667 11.6666666666667  C 7.92621527777778 11.6666666666667  8.15082465277778 11.7491319444444  8.34049479166667 11.9140625  C 8.53016493055556 12.0789930555556  8.625 12.2743055555556  8.625 12.5  C 8.625 12.7256944444444  8.53016493055556 12.9210069444444  8.34049479166667 13.0859375  L 6.2890625 14.8697916666667  C 6.99782986111111 15.4427083333333  7.80143229166667 15.8854166666667  8.69986979166667 16.1979166666667  C 9.59830729166667 16.5104166666667  10.5316840277778 16.6666666666667  11.5 16.6666666666667  C 12.8376736111111 16.6666666666667  14.0855034722222 16.3845486111111  15.2434895833333 15.8203125  C 16.4014756944444 15.2560763888889  17.3298611111111 14.4791666666667  18.0286458333333 13.4895833333333  C 18.1384548611111 13.3420138888889  18.4029947916667 12.8342013888889  18.822265625 11.9661458333333  C 18.9021267361111 11.7664930555556  19.0518663194444 11.6666666666667  19.271484375 11.6666666666667  L 22.146484375 11.6666666666667  C 22.2762586805556 11.6666666666667  22.3885633680556 11.7078993055556  22.4833984375 11.7903645833333  Z M 22.7154947916667 1.08072916666667  C 22.9051649305556 1.24565972222222  23 1.44097222222222  23 1.66666666666667  L 23 7.5  C 23 7.72569444444444  22.9051649305556 7.92100694444444  22.7154947916667 8.0859375  C 22.5258246527778 8.25086805555556  22.3012152777778 8.33333333333333  22.0416666666667 8.33333333333333  L 15.3333333333333 8.33333333333333  C 15.0737847222222 8.33333333333333  14.8491753472222 8.25086805555556  14.6595052083333 8.0859375  C 14.4698350694444 7.92100694444444  14.375 7.72569444444444  14.375 7.5  C 14.375 7.27430555555555  14.4698350694444 7.07899305555555  14.6595052083333 6.9140625  L 16.7259114583333 5.1171875  C 15.2484809027778 3.92795138888889  13.5065104166667 3.33333333333333  11.5 3.33333333333333  C 10.1623263888889 3.33333333333333  8.91449652777778 3.61545138888889  7.75651041666667 4.1796875  C 6.59852430555556 4.74392361111111  5.67013888888889 5.52083333333333  4.97135416666667 6.51041666666667  C 4.86154513888889 6.65798611111111  4.59700520833333 7.16579861111111  4.177734375 8.03385416666667  C 4.09787326388889 8.23350694444444  3.94813368055556 8.33333333333333  3.728515625 8.33333333333333  L 0.748697916666667 8.33333333333333  C 0.618923611111111 8.33333333333333  0.506618923611111 8.29210069444444  0.411783854166667 8.20963541666667  C 0.316948784722222 8.12717013888889  0.26953125 8.02951388888889  0.26953125 7.91666666666667  L 0.26953125 7.82552083333333  C 0.918402777777778 5.49913194444444  2.26605902777778 3.61328125  4.3125 2.16796875  C 6.35894097222222 0.72265625  8.75477430555556 0  11.5 0  C 12.9574652777778 0  14.375 0.240885416666667  15.7526041666667 0.72265625  C 17.1302083333333 1.20442708333333  18.3530815972222 1.88368055555555  19.4212239583333 2.76041666666667  L 21.3678385416667 1.08072916666667  C 21.5575086805556 0.915798611111109  21.7821180555556 0.833333333333333  22.0416666666667 0.833333333333333  C 22.3012152777778 0.833333333333333  22.5258246527778 0.915798611111109  22.7154947916667 1.08072916666667  Z " fill-rule="nonzero" fill="#000000" stroke="none" transform="matrix(1 0 0 1 621 349 )" />
  </g>
</svg>