<?xml version="1.0" encoding="utf-8"?>
<svg version="1.1" xmlns:xlink="http://www.w3.org/1999/xlink" width="30px" height="28px" xmlns="http://www.w3.org/2000/svg">
  <g transform="matrix(1 0 0 1 -227 -150 )">
    <path d="M 22.734375 25.4275  C 22.9627403846154 25.2058333333333  23.0769230769231 24.9433333333333  23.0769230769231 24.64  C 23.0769230769231 24.3366666666667  22.9627403846154 24.0741666666667  22.734375 23.8525  C 22.5060096153846 23.6308333333333  22.2355769230769 23.52  21.9230769230769 23.52  C 21.6105769230769 23.52  21.3401442307692 23.6308333333333  21.1117788461538 23.8525  C 20.8834134615385 24.0741666666667  20.7692307692308 24.3366666666667  20.7692307692308 24.64  C 20.7692307692308 24.9433333333333  20.8834134615385 25.2058333333333  21.1117788461538 25.4275  C 21.3401442307692 25.6491666666667  21.6105769230769 25.76  21.9230769230769 25.76  C 22.2355769230769 25.76  22.5060096153846 25.6491666666667  22.734375 25.4275  Z M 27.3497596153846 25.4275  C 27.578125 25.2058333333333  27.6923076923077 24.9433333333333  27.6923076923077 24.64  C 27.6923076923077 24.3366666666667  27.578125 24.0741666666667  27.3497596153846 23.8525  C 27.1213942307692 23.6308333333333  26.8509615384615 23.52  26.5384615384615 23.52  C 26.2259615384615 23.52  25.9555288461538 23.6308333333333  25.7271634615385 23.8525  C 25.4987980769231 24.0741666666667  25.3846153846154 24.3366666666667  25.3846153846154 24.64  C 25.3846153846154 24.9433333333333  25.4987980769231 25.2058333333333  25.7271634615385 25.4275  C 25.9555288461538 25.6491666666667  26.2259615384615 25.76  26.5384615384615 25.76  C 26.8509615384615 25.76  27.1213942307692 25.6491666666667  27.3497596153846 25.4275  Z M 29.4951923076923 19.53  C 29.8317307692308 19.8566666666667  30 20.2533333333333  30 20.72  L 30 26.32  C 30 26.7866666666667  29.8317307692308 27.1833333333333  29.4951923076923 27.51  C 29.1586538461539 27.8366666666667  28.75 28  28.2692307692308 28  L 1.73076923076923 28  C 1.25 28  0.841346153846154 27.8366666666667  0.504807692307692 27.51  C 0.168269230769231 27.1833333333333  0 26.7866666666667  0 26.32  L 0 20.72  C 0 20.2533333333333  0.168269230769231 19.8566666666667  0.504807692307692 19.53  C 0.841346153846154 19.2033333333333  1.25 19.04  1.73076923076923 19.04  L 9.42908653846154 19.04  C 9.68149038461539 19.6933333333333  10.1051682692308 20.23  10.7001201923077 20.65  C 11.2950721153846 21.07  11.9591346153846 21.28  12.6923076923077 21.28  L 17.3076923076923 21.28  C 18.0408653846154 21.28  18.7049278846154 21.07  19.2998798076923 20.65  C 19.8948317307692 20.23  20.3185096153846 19.6933333333333  20.5709134615385 19.04  L 28.2692307692308 19.04  C 28.75 19.04  29.1586538461539 19.2033333333333  29.4951923076923 19.53  Z M 23.8882211538462 8.1725  C 24.2608173076923 8.5225  24.3449519230769 8.925  24.140625 9.38  C 23.9362980769231 9.84666666666666  23.5817307692308 10.08  23.0769230769231 10.08  L 18.4615384615385 10.08  L 18.4615384615385 17.92  C 18.4615384615385 18.2233333333333  18.3473557692308 18.4858333333333  18.1189903846154 18.7075  C 17.890625 18.9291666666667  17.6201923076923 19.04  17.3076923076923 19.04  L 12.6923076923077 19.04  C 12.3798076923077 19.04  12.109375 18.9291666666667  11.8810096153846 18.7075  C 11.6526442307692 18.4858333333333  11.5384615384615 18.2233333333333  11.5384615384615 17.92  L 11.5384615384615 10.08  L 6.92307692307692 10.08  C 6.41826923076923 10.08  6.06370192307692 9.84666666666666  5.859375 9.38  C 5.65504807692308 8.925  5.73918269230769 8.5225  6.11177884615385 8.1725  L 14.1887019230769 0.332499999999999  C 14.4050480769231 0.110833333333332  14.6754807692308 0  15 0  C 15.3245192307692 0  15.5949519230769 0.110833333333332  15.8112980769231 0.332499999999999  L 23.8882211538462 8.1725  Z " fill-rule="nonzero" fill="#000000" stroke="none" transform="matrix(1 0 0 1 227 150 )" />
  </g>
</svg>