<?xml version="1.0" encoding="utf-8"?>
<svg version="1.1" xmlns:xlink="http://www.w3.org/1999/xlink" width="23px" height="26px" xmlns="http://www.w3.org/2000/svg">
  <g transform="matrix(1 0 0 1 -975 -224 )">
    <path d="M 8.21661931818182 9.90234375  C 8.31463068181818 10.00390625  8.36363636363636 10.1336805555556  8.36363636363636 10.2916666666667  L 8.36363636363636 20.0416666666667  C 8.36363636363636 20.1996527777778  8.31463068181818 20.3294270833333  8.21661931818182 20.4309895833333  C 8.11860795454546 20.5325520833333  7.99337121212121 20.5833333333333  7.84090909090909 20.5833333333333  L 6.79545454545455 20.5833333333333  C 6.64299242424243 20.5833333333333  6.51775568181818 20.5325520833333  6.41974431818182 20.4309895833333  C 6.32173295454545 20.3294270833333  6.27272727272727 20.1996527777778  6.27272727272727 20.0416666666667  L 6.27272727272727 10.2916666666667  C 6.27272727272727 10.1336805555556  6.32173295454545 10.00390625  6.41974431818182 9.90234375  C 6.51775568181818 9.80078125  6.64299242424243 9.75  6.79545454545455 9.75  L 7.84090909090909 9.75  C 7.99337121212121 9.75  8.11860795454546 9.80078125  8.21661931818182 9.90234375  Z M 12.3984375 9.90234375  C 12.4964488636364 10.00390625  12.5454545454545 10.1336805555556  12.5454545454545 10.2916666666667  L 12.5454545454545 20.0416666666667  C 12.5454545454545 20.1996527777778  12.4964488636364 20.3294270833333  12.3984375 20.4309895833333  C 12.3004261363636 20.5325520833333  12.1751893939394 20.5833333333333  12.0227272727273 20.5833333333333  L 10.9772727272727 20.5833333333333  C 10.8248106060606 20.5833333333333  10.6995738636364 20.5325520833333  10.6015625 20.4309895833333  C 10.5035511363636 20.3294270833333  10.4545454545455 20.1996527777778  10.4545454545455 20.0416666666667  L 10.4545454545455 10.2916666666667  C 10.4545454545455 10.1336805555556  10.5035511363636 10.00390625  10.6015625 9.90234375  C 10.6995738636364 9.80078125  10.8248106060606 9.75  10.9772727272727 9.75  L 12.0227272727273 9.75  C 12.1751893939394 9.75  12.3004261363636 9.80078125  12.3984375 9.90234375  Z M 16.5802556818182 9.90234375  C 16.6782670454545 10.00390625  16.7272727272727 10.1336805555556  16.7272727272727 10.2916666666667  L 16.7272727272727 20.0416666666667  C 16.7272727272727 20.1996527777778  16.6782670454545 20.3294270833333  16.5802556818182 20.4309895833333  C 16.4822443181818 20.5325520833333  16.3570075757576 20.5833333333333  16.2045454545455 20.5833333333333  L 15.1590909090909 20.5833333333333  C 15.0066287878788 20.5833333333333  14.8813920454545 20.5325520833333  14.7833806818182 20.4309895833333  C 14.6853693181818 20.3294270833333  14.6363636363636 20.1996527777778  14.6363636363636 20.0416666666667  L 14.6363636363636 10.2916666666667  C 14.6363636363636 10.1336805555556  14.6853693181818 10.00390625  14.7833806818182 9.90234375  C 14.8813920454545 9.80078125  15.0066287878788 9.75  15.1590909090909 9.75  L 16.2045454545455 9.75  C 16.3570075757576 9.75  16.4822443181818 9.80078125  16.5802556818182 9.90234375  Z M 18.7038352272727 23.232421875  C 18.7800662878788 23.0236545138889  18.8181818181818 22.7951388888889  18.8181818181818 22.546875  L 18.8181818181818 7  L 4.18181818181818 7  L 4.18181818181818 22.546875  C 4.18181818181818 22.7951388888889  4.21993371212121 23.0236545138889  4.29616477272727 23.232421875  C 4.37239583333333 23.4411892361111  4.45134943181818 23.5935329861111  4.53302556818182 23.689453125  C 4.61470170454546 23.7853732638889  4.671875 23.8333333333333  4.70454545454546 23.8333333333333  L 18.2954545454545 23.8333333333333  C 18.328125 23.8333333333333  18.3852982954545 23.7853732638889  18.4669744318182 23.689453125  C 18.5486505681818 23.5935329861111  18.6276041666667 23.4411892361111  18.7038352272727 23.232421875  Z M 8.64133522727273 2.35286458333333  L 7.84090909090909 4.33333333333333  L 15.1590909090909 4.33333333333333  L 14.375 2.35286458333333  C 14.2987689393939 2.25130208333333  14.2062026515152 2.18923611111111  14.0973011363636 2.16666666666667  L 8.91903409090909 2.16666666666667  C 8.81013257575758 2.18923611111111  8.71756628787879 2.25130208333333  8.64133522727273 2.35286458333333  Z M 22.8529829545455 4.48567708333333  C 22.9509943181818 4.58723958333333  23 4.71701388888889  23 4.875  L 23 5.95833333333333  C 23 6.11631944444444  22.9509943181818 6.24609375  22.8529829545455 6.34765625  C 22.7549715909091 6.44921875  22.6297348484849 6.5  22.4772727272727 6.5  L 21 6.5  L 21 22.546875  C 20.9090909090909 23.4835069444444  20.6531723484849 24.2931857638889  20.1413352272727 24.9759114583333  C 19.6294981060606 25.6586371527778  19.0142045454545 26  18.2954545454545 26  L 4.70454545454546 26  C 3.98579545454546 26  3.37050189393939 25.669921875  2.85866477272727 25.009765625  C 2.34682765151515 24.349609375  2.09090909090909 23.5512152777778  2 22.6145833333333  L 2 6.5  L 0.522727272727273 6.5  C 0.370265151515151 6.5  0.245028409090909 6.44921875  0.147017045454545 6.34765625  C 0.0490056818181818 6.24609375  0 6.11631944444444  0 5.95833333333333  L 0 4.875  C 0 4.71701388888889  0.0490056818181818 4.58723958333333  0.147017045454545 4.48567708333333  C 0.245028409090909 4.38411458333333  0.370265151515151 4.33333333333333  0.522727272727273 4.33333333333333  L 5.5703125 4.33333333333333  L 6.71377840909091 1.50651041666667  C 6.87713068181818 1.08897569444444  7.17116477272727 0.733506944444442  7.59588068181818 0.440104166666668  C 8.02059659090909 0.146701388888887  8.45075757575758 0  8.88636363636364 0  L 14.1136363636364 0  C 14.5492424242424 0  14.9794034090909 0.146701388888887  15.4041193181818 0.440104166666668  C 15.8288352272727 0.733506944444442  16.1228693181818 1.08897569444444  16.2862215909091 1.50651041666667  L 17.4296875 4.33333333333333  L 22.4772727272727 4.33333333333333  C 22.6297348484849 4.33333333333333  22.7549715909091 4.38411458333333  22.8529829545455 4.48567708333333  Z " fill-rule="nonzero" fill="#000000" stroke="none" transform="matrix(1 0 0 1 975 224 )" />
  </g>
</svg>