<?xml version="1.0" encoding="utf-8"?>
<svg version="1.1" xmlns:xlink="http://www.w3.org/1999/xlink" width="13px" height="13px" xmlns="http://www.w3.org/2000/svg">
  <g transform="matrix(1 0 0 1 -449 -336 )">
    <path d="M 7.69772256728779 6.20040080160321  C 7.78743961352657 6.2872411489646  7.83229813664596 6.38710754843019  7.83229813664596 6.5  C 7.83229813664596 6.61289245156981  7.78743961352657 6.7127588510354  7.69772256728779 6.79959919839679  L 1.42650103519669 12.8697394789579  C 1.3367839889579 12.9565798263193  1.2336093857833 13  1.11697722567288 13  C 1.00034506556246 13  0.897170462387854 12.9565798263193  0.807453416149068 12.8697394789579  L 0.134575569358178 12.2184368737475  C 0.0448585231193927 12.1315965263861  0 12.0317301269205  0 11.9188376753507  C 0 11.8059452237809  0.0448585231193927 11.7060788243153  0.134575569358178 11.6192384769539  L 5.42339544513458 6.5  L 0.134575569358178 1.38076152304609  C 0.0448585231193927 1.2939211756847  0 1.1940547762191  0 1.0811623246493  C 0 0.968269873079491  0.0448585231193927 0.868403473613893  0.134575569358178 0.781563126252504  L 0.807453416149068 0.130260521042084  C 0.897170462387854 0.0434201736806943  1.00034506556246 0  1.11697722567288 0  C 1.2336093857833 0  1.3367839889579 0.0434201736806943  1.42650103519669 0.130260521042084  L 7.69772256728779 6.20040080160321  Z M 12.8654244306418 6.20040080160321  C 12.9551414768806 6.2872411489646  13 6.38710754843019  13 6.5  C 13 6.61289245156981  12.9551414768806 6.7127588510354  12.8654244306418 6.79959919839679  L 6.59420289855072 12.8697394789579  C 6.50448585231194 12.9565798263193  6.40131124913734 13  6.28467908902692 13  C 6.16804692891649 13  6.06487232574189 12.9565798263193  5.97515527950311 12.8697394789579  L 5.30227743271222 12.2184368737475  C 5.21256038647343 12.1315965263861  5.16770186335404 12.0317301269205  5.16770186335404 11.9188376753507  C 5.16770186335404 11.8059452237809  5.21256038647343 11.7060788243153  5.30227743271222 11.6192384769539  L 10.5910973084886 6.5  L 5.30227743271222 1.38076152304609  C 5.21256038647343 1.2939211756847  5.16770186335404 1.1940547762191  5.16770186335404 1.0811623246493  C 5.16770186335404 0.968269873079491  5.21256038647343 0.868403473613893  5.30227743271222 0.781563126252504  L 5.97515527950311 0.130260521042084  C 6.06487232574189 0.0434201736806943  6.16804692891649 0  6.28467908902692 0  C 6.40131124913734 0  6.50448585231194 0.0434201736806943  6.59420289855072 0.130260521042084  L 12.8654244306418 6.20040080160321  Z " fill-rule="nonzero" fill="#000000" stroke="none" transform="matrix(1 0 0 1 449 336 )" />
  </g>
</svg>