<?xml version="1.0" encoding="utf-8"?>
<svg version="1.1" xmlns:xlink="http://www.w3.org/1999/xlink" width="13px" height="13px" xmlns="http://www.w3.org/2000/svg">
  <g transform="matrix(1 0 0 1 -419 -336 )">
    <path d="M 12.7766323024055 6.20040080160321  C 12.9255441008018 6.2872411489646  13 6.38710754843019  13 6.5  C 13 6.61289245156981  12.9255441008018 6.7127588510354  12.7766323024055 6.79959919839679  L 2.36769759450172 12.8697394789579  C 2.21878579610538 12.9565798263193  2.0475372279496 13  1.85395189003436 13  C 1.66036655211913 13  1.48911798396334 12.9565798263193  1.34020618556701 12.8697394789579  L 0.223367697594502 12.2184368737475  C 0.0744558991981673 12.1315965263861  0 12.0317301269205  0 11.9188376753507  C 0 11.8059452237809  0.0744558991981673 11.7060788243153  0.223367697594502 11.6192384769539  L 9.00171821305842 6.5  L 0.223367697594502 1.38076152304609  C 0.0744558991981673 1.2939211756847  0 1.1940547762191  0 1.0811623246493  C 0 0.968269873079491  0.0744558991981673 0.868403473613893  0.223367697594502 0.781563126252504  L 1.34020618556701 0.130260521042084  C 1.48911798396334 0.0434201736806943  1.66036655211913 0  1.85395189003436 0  C 2.0475372279496 0  2.21878579610538 0.0434201736806943  2.36769759450172 0.130260521042084  L 12.7766323024055 6.20040080160321  Z " fill-rule="nonzero" fill="#000000" stroke="none" transform="matrix(1 0 0 1 419 336 )" />
  </g>
</svg>