<?xml version="1.0" encoding="utf-8"?>
<svg version="1.1" xmlns:xlink="http://www.w3.org/1999/xlink" width="13px" height="13px" xmlns="http://www.w3.org/2000/svg">
  <g transform="matrix(1 0 0 1 -204 -339 )">
    <path d="M 7.69772256728779 11.6192384769539  C 7.78743961352657 11.7060788243153  7.83229813664596 11.8059452237809  7.83229813664596 11.9188376753507  C 7.83229813664596 12.0317301269205  7.78743961352657 12.1315965263861  7.69772256728779 12.2184368737475  L 7.02484472049689 12.8697394789579  C 6.93512767425811 12.9565798263193  6.83195307108351 13  6.71532091097308 13  C 6.59868875086266 13  6.49551414768806 12.9565798263193  6.40579710144928 12.8697394789579  L 0.134575569358178 6.79959919839679  C 0.0448585231193927 6.7127588510354  0 6.61289245156981  0 6.5  C 0 6.38710754843019  0.0448585231193927 6.2872411489646  0.134575569358178 6.20040080160321  L 6.40579710144928 0.130260521042084  C 6.49551414768806 0.0434201736806943  6.59868875086266 0  6.71532091097308 0  C 6.83195307108351 0  6.93512767425811 0.0434201736806943  7.02484472049689 0.130260521042084  L 7.69772256728779 0.781563126252504  C 7.78743961352657 0.868403473613893  7.83229813664596 0.968269873079491  7.83229813664596 1.0811623246493  C 7.83229813664596 1.1940547762191  7.78743961352657 1.2939211756847  7.69772256728779 1.38076152304609  L 2.40890269151139 6.5  L 7.69772256728779 11.6192384769539  Z M 12.8654244306418 11.6192384769539  C 12.9551414768806 11.7060788243153  13 11.8059452237809  13 11.9188376753507  C 13 12.0317301269205  12.9551414768806 12.1315965263861  12.8654244306418 12.2184368737475  L 12.1925465838509 12.8697394789579  C 12.1028295376121 12.9565798263193  11.9996549344375 13  11.8830227743271 13  C 11.7663906142167 13  11.6632160110421 12.9565798263193  11.5734989648033 12.8697394789579  L 5.30227743271222 6.79959919839679  C 5.21256038647343 6.7127588510354  5.16770186335404 6.61289245156981  5.16770186335404 6.5  C 5.16770186335404 6.38710754843019  5.21256038647343 6.2872411489646  5.30227743271222 6.20040080160321  L 11.5734989648033 0.130260521042084  C 11.6632160110421 0.0434201736806943  11.7663906142167 0  11.8830227743271 0  C 11.9996549344375 0  12.1028295376121 0.0434201736806943  12.1925465838509 0.130260521042084  L 12.8654244306418 0.781563126252504  C 12.9551414768806 0.868403473613893  13 0.968269873079491  13 1.0811623246493  C 13 1.1940547762191  12.9551414768806 1.2939211756847  12.8654244306418 1.38076152304609  L 7.57660455486542 6.5  L 12.8654244306418 11.6192384769539  Z " fill-rule="nonzero" fill="#000000" stroke="none" transform="matrix(1 0 0 1 204 339 )" />
  </g>
</svg>