<?xml version="1.0" encoding="utf-8"?>
<svg version="1.1" xmlns:xlink="http://www.w3.org/1999/xlink" width="13px" height="13px" xmlns="http://www.w3.org/2000/svg">
  <g transform="matrix(1 0 0 1 -233 -338 )">
    <path d="M 12.7766323024055 0.781563126252504  C 12.9255441008018 0.868403473613893  13 0.968269873079491  13 1.0811623246493  C 13 1.1940547762191  12.9255441008018 1.2939211756847  12.7766323024055 1.38076152304609  L 3.99828178694158 6.5  L 12.7766323024055 11.6192384769539  C 12.9255441008018 11.7060788243153  13 11.8059452237809  13 11.9188376753507  C 13 12.0317301269205  12.9255441008018 12.1315965263861  12.7766323024055 12.2184368737475  L 11.659793814433 12.8697394789579  C 11.5108820160367 12.9565798263193  11.3396334478809 13  11.1460481099656 13  C 10.9524627720504 13  10.7812142038946 12.9565798263193  10.6323024054983 12.8697394789579  L 0.223367697594502 6.79959919839679  C 0.0744558991981673 6.7127588510354  0 6.61289245156981  0 6.5  C 0 6.38710754843019  0.0744558991981673 6.2872411489646  0.223367697594502 6.20040080160321  L 10.6323024054983 0.130260521042084  C 10.7812142038946 0.0434201736806943  10.9524627720504 0  11.1460481099656 0  C 11.3396334478809 0  11.5108820160367 0.0434201736806943  11.659793814433 0.130260521042084  L 12.7766323024055 0.781563126252504  Z " fill-rule="nonzero" fill="#000000" stroke="none" transform="matrix(1 0 0 1 233 338 )" />
  </g>
</svg>