<?xml version="1.0" encoding="utf-8"?>
<svg version="1.1" xmlns:xlink="http://www.w3.org/1999/xlink" width="21px" height="20px" xmlns="http://www.w3.org/2000/svg">
  <g transform="matrix(1 0 0 1 -1098 -967 )">
    <path d="M 16.365234375 11.4192708333333  C 16.5384114583333 11.2543402777778  16.625 11.0590277777778  16.625 10.8333333333333  L 16.625 9.16666666666667  C 16.625 8.94097222222222  16.5384114583333 8.74565972222222  16.365234375 8.58072916666667  C 16.1920572916667 8.41579861111111  15.9869791666667 8.33333333333333  15.75 8.33333333333333  L 5.25 8.33333333333333  C 5.01302083333333 8.33333333333333  4.80794270833333 8.41579861111111  4.634765625 8.58072916666667  C 4.46158854166667 8.74565972222222  4.375 8.94097222222222  4.375 9.16666666666667  L 4.375 10.8333333333333  C 4.375 11.0590277777778  4.46158854166667 11.2543402777778  4.634765625 11.4192708333333  C 4.80794270833333 11.5842013888889  5.01302083333333 11.6666666666667  5.25 11.6666666666667  L 15.75 11.6666666666667  C 15.9869791666667 11.6666666666667  16.1920572916667 11.5842013888889  16.365234375 11.4192708333333  Z M 19.591796875 4.98046875  C 20.5305989583333 6.51258680555555  21 8.18576388888889  21 10  C 21 11.8142361111111  20.5305989583333 13.4874131944444  19.591796875 15.01953125  C 18.6529947916667 16.5516493055556  17.3792317708333 17.7647569444444  15.7705078125 18.6588541666667  C 14.1617838541667 19.5529513888889  12.4049479166667 20  10.5 20  C 8.59505208333333 20  6.83821614583333 19.5529513888889  5.2294921875 18.6588541666667  C 3.62076822916667 17.7647569444444  2.34700520833333 16.5516493055556  1.408203125 15.01953125  C 0.469401041666667 13.4874131944444  0 11.8142361111111  0 10  C 0 8.18576388888889  0.469401041666667 6.51258680555555  1.408203125 4.98046875  C 2.34700520833333 3.44835069444444  3.62076822916667 2.23524305555555  5.2294921875 1.34114583333333  C 6.83821614583333 0.447048611111109  8.59505208333333 0  10.5 0  C 12.4049479166667 0  14.1617838541667 0.447048611111109  15.7705078125 1.34114583333333  C 17.3792317708333 2.23524305555555  18.6529947916667 3.44835069444444  19.591796875 4.98046875  Z " fill-rule="nonzero" fill="#000000" stroke="none" transform="matrix(1 0 0 1 1098 967 )" />
  </g>
</svg>