<?xml version="1.0" encoding="utf-8"?>
<svg version="1.1" xmlns:xlink="http://www.w3.org/1999/xlink" width="25px" height="28px" xmlns="http://www.w3.org/2000/svg">
  <g transform="matrix(1 0 0 1 -1091 -345 )">
    <path d="M 8.93110795454546 10.6640625  C 9.03764204545455 10.7734375  9.09090909090909 10.9131944444444  9 11.0833333333333  L 9 21.5833333333333  C 9.09090909090909 21.7534722222222  9.03764204545455 21.8932291666667  8.93110795454546 22.0026041666667  C 8.82457386363636 22.1119791666667  8.68844696969697 22.1666666666667  8.52272727272727 22.1666666666667  L 7.38636363636364 22.1666666666667  C 7.22064393939394 22.1666666666667  7.08451704545455 22.1119791666667  6.97798295454545 22.0026041666667  C 6.87144886363636 21.8932291666667  6.81818181818182 21.7534722222222  7 21.5833333333333  L 7 11.0833333333333  C 6.81818181818182 10.9131944444444  6.87144886363636 10.7734375  6.97798295454545 10.6640625  C 7.08451704545455 10.5546875  7.22064393939394 10.5  7.38636363636364 10.5  L 8.52272727272727 10.5  C 8.68844696969697 10.5  8.82457386363636 10.5546875  8.93110795454546 10.6640625  Z M 13.4765625 10.6640625  C 13.5830965909091 10.7734375  13.6363636363636 10.9131944444444  13.6363636363636 11.0833333333333  L 13.6363636363636 21.5833333333333  C 13.6363636363636 21.7534722222222  13.5830965909091 21.8932291666667  13.4765625 22.0026041666667  C 13.3700284090909 22.1119791666667  13.2339015151515 22.1666666666667  13.0681818181818 22.1666666666667  L 11.9318181818182 22.1666666666667  C 11.7660984848485 22.1666666666667  11.6299715909091 22.1119791666667  11.5234375 22.0026041666667  C 11.4169034090909 21.8932291666667  11.3636363636364 21.7534722222222  11.3636363636364 21.5833333333333  L 11.3636363636364 11.0833333333333  C 11.3636363636364 10.9131944444444  11.4169034090909 10.7734375  11.5234375 10.6640625  C 11.6299715909091 10.5546875  11.7660984848485 10.5  11.9318181818182 10.5  L 13.0681818181818 10.5  C 13.2339015151515 10.5  13.3700284090909 10.5546875  13.4765625 10.6640625  Z M 18.0220170454545 10.6640625  C 18.1285511363636 10.7734375  18.1818181818182 10.9131944444444  18 11.0833333333333  L 18 21.5833333333333  C 18.1818181818182 21.7534722222222  18.1285511363636 21.8932291666667  18.0220170454545 22.0026041666667  C 17.9154829545455 22.1119791666667  17.7793560606061 22.1666666666667  17.6136363636364 22.1666666666667  L 16.4772727272727 22.1666666666667  C 16.311553030303 22.1666666666667  16.1754261363636 22.1119791666667  16.0688920454545 22.0026041666667  C 15.9623579545455 21.8932291666667  15.9090909090909 21.7534722222222  16 21.5833333333333  L 16 11.0833333333333  C 15.9090909090909 10.9131944444444  15.9623579545455 10.7734375  16.0688920454545 10.6640625  C 16.1754261363636 10.5546875  16.311553030303 10.5  16.4772727272727 10.5  L 17.6136363636364 10.5  C 17.7793560606061 10.5  17.9154829545455 10.5546875  18.0220170454545 10.6640625  Z M 20.3302556818182 25.01953125  C 20.413115530303 24.7947048611111  20.4545454545455 24.5486111111111  20 24.28125  L 20 7  L 5 7  L 5 24.28125  C 4.54545454545455 24.5486111111111  4.58688446969697 24.7947048611111  4.66974431818182 25.01953125  C 4.75260416666667 25.2443576388889  4.83842329545455 25.4084201388889  4.92720170454545 25.51171875  C 5.01598011363636 25.6150173611111  5.078125 25.6666666666667  5.11363636363636 25.6666666666667  L 19.8863636363636 25.6666666666667  C 19.921875 25.6666666666667  19.9840198863636 25.6150173611111  20.0727982954545 25.51171875  C 20.1615767045455 25.4084201388889  20.2473958333333 25.2443576388889  20.3302556818182 25.01953125  Z M 9.39275568181818 2.53385416666667  L 8.52272727272727 4.66666666666667  L 16.4772727272727 4.66666666666667  L 15.625 2.53385416666667  C 15.5421401515152 2.42447916666667  15.4415246212121 2.35763888888889  15.3231534090909 2.33333333333333  L 9.69460227272727 2.33333333333333  C 9.57623106060606 2.35763888888889  9.47561553030303 2.42447916666667  9.39275568181818 2.53385416666667  Z M 24.8401988636364 4.83072916666667  C 24.9467329545455 4.94010416666667  25 5.07986111111111  25 5.25  L 25 6.41666666666667  C 25 6.58680555555555  24.9467329545455 6.7265625  24.8401988636364 6.8359375  C 24.7336647727273 6.9453125  24.5975378787879 7  24.4318181818182 7  L 22.7272727272727 7  L 22.7272727272727 24.28125  C 22.7272727272727 25.2899305555556  22.4491003787879 26.1618923611111  21.8927556818182 26.8971354166667  C 21.3364109848485 27.6323784722222  20.6676136363636 28  19.8863636363636 28  L 5.11363636363636 28  C 4.33238636363636 28  3.66358901515152 27.64453125  3.10724431818182 26.93359375  C 2.55089962121212 26.22265625  2.27272727272727 25.3628472222222  2.27272727272727 24.3541666666667  L 2.27272727272727 7  L 0.568181818181818 7  C 0.402462121212121 7  0.266335227272727 6.9453125  0.159801136363636 6.8359375  C 0.0532670454545454 6.7265625  0 6.58680555555555  0 6.41666666666667  L 0 5.25  C 0 5.07986111111111  0.0532670454545454 4.94010416666667  0.159801136363636 4.83072916666667  C 0.266335227272727 4.72135416666667  0.402462121212121 4.66666666666667  0.568181818181818 4.66666666666667  L 6.0546875 4.66666666666667  L 7.29758522727273 1.62239583333333  C 7.47514204545455 1.17274305555555  7.79474431818182 0.789930555555553  8.25639204545455 0.473958333333334  C 8.71803977272727 0.157986111111109  9.18560606060606 0  9.65909090909091 0  L 15.3409090909091 0  C 15.8143939393939 0  16.2819602272727 0.157986111111109  16.7436079545455 0.473958333333334  C 17.2052556818182 0.789930555555553  17.5248579545455 1.17274305555555  17.7024147727273 1.62239583333333  L 18.9453125 4.66666666666667  L 24.4318181818182 4.66666666666667  C 24.5975378787879 4.66666666666667  24.7336647727273 4.72135416666667  24.8401988636364 4.83072916666667  Z " fill-rule="nonzero" fill="#000000" stroke="none" transform="matrix(1 0 0 1 1091 345 )" />
  </g>
</svg>