<?xml version="1.0" encoding="utf-8"?>
<svg version="1.1" xmlns:xlink="http://www.w3.org/1999/xlink" width="19px" height="18px" xmlns="http://www.w3.org/2000/svg">
  <g transform="matrix(1 0 0 1 -517 -164 )">
    <path d="M 1.46153846153846 13.8214285714286  L 1.46153846153846 16.7142857142857  L 4.75 16.7142857142857  L 4.75 13.8214285714286  L 1.46153846153846 13.8214285714286  Z M 5.48076923076923 13.8214285714286  L 5.48076923076923 16.7142857142857  L 9.13461538461539 16.7142857142857  L 9.13461538461539 13.8214285714286  L 5.48076923076923 13.8214285714286  Z M 1.46153846153846 9.96428571428572  L 1.46153846153846 13.1785714285714  L 4.75 13.1785714285714  L 4.75 9.96428571428572  L 1.46153846153846 9.96428571428572  Z M 5.48076923076923 9.96428571428572  L 5.48076923076923 13.1785714285714  L 9.13461538461539 13.1785714285714  L 9.13461538461539 9.96428571428572  L 5.48076923076923 9.96428571428572  Z M 1.46153846153846 6.42857142857143  L 1.46153846153846 9.32142857142857  L 4.75 9.32142857142857  L 4.75 6.42857142857143  L 1.46153846153846 6.42857142857143  Z M 9.86538461538462 13.8214285714286  L 9.86538461538462 16.7142857142857  L 13.5192307692308 16.7142857142857  L 13.5192307692308 13.8214285714286  L 9.86538461538462 13.8214285714286  Z M 5.48076923076923 6.42857142857143  L 5.48076923076923 9.32142857142857  L 9.13461538461539 9.32142857142857  L 9.13461538461539 6.42857142857143  L 5.48076923076923 6.42857142857143  Z M 14.25 13.8214285714286  L 14.25 16.7142857142857  L 17.5384615384615 16.7142857142857  L 17.5384615384615 13.8214285714286  L 14.25 13.8214285714286  Z M 9.86538461538462 9.96428571428572  L 9.86538461538462 13.1785714285714  L 13.5192307692308 13.1785714285714  L 13.5192307692308 9.96428571428572  L 9.86538461538462 9.96428571428572  Z M 5.73768028846154 4.72600446428572  C 5.80999599358974 4.66238839285714  5.84615384615385 4.58705357142857  5.84615384615385 4.5  L 5.84615384615385 1.60714285714286  C 5.84615384615385 1.52008928571429  5.80999599358974 1.44475446428571  5.73768028846154 1.38113839285714  C 5.66536458333333 1.31752232142857  5.57972756410256 1.28571428571429  5.48076923076923 1.28571428571429  L 4.75 1.28571428571429  C 4.65104166666667 1.28571428571429  4.5654046474359 1.31752232142857  4.49308894230769 1.38113839285714  C 4.42077323717949 1.44475446428571  4.38461538461539 1.52008928571429  4.38461538461539 1.60714285714286  L 4.38461538461539 4.5  C 4.38461538461539 4.58705357142857  4.42077323717949 4.66238839285714  4.49308894230769 4.72600446428572  C 4.5654046474359 4.78962053571429  4.65104166666667 4.82142857142857  4.75 4.82142857142857  L 5.48076923076923 4.82142857142857  C 5.57972756410256 4.82142857142857  5.66536458333333 4.78962053571429  5.73768028846154 4.72600446428572  Z M 14.25 9.96428571428572  L 14.25 13.1785714285714  L 17.5384615384615 13.1785714285714  L 17.5384615384615 9.96428571428572  L 14.25 9.96428571428572  Z M 9.86538461538462 6.42857142857143  L 9.86538461538462 9.32142857142857  L 13.5192307692308 9.32142857142857  L 13.5192307692308 6.42857142857143  L 9.86538461538462 6.42857142857143  Z M 14.25 6.42857142857143  L 14.25 9.32142857142857  L 17.5384615384615 9.32142857142857  L 17.5384615384615 6.42857142857143  L 14.25 6.42857142857143  Z M 14.5069110576923 4.72600446428572  C 14.5792267628205 4.66238839285714  14.6153846153846 4.58705357142857  14.6153846153846 4.5  L 14.6153846153846 1.60714285714286  C 14.6153846153846 1.52008928571429  14.5792267628205 1.44475446428571  14.5069110576923 1.38113839285714  C 14.4345953525641 1.31752232142857  14.3489583333333 1.28571428571429  14.25 1.28571428571429  L 13.5192307692308 1.28571428571429  C 13.4202724358974 1.28571428571429  13.3346354166667 1.31752232142857  13.2623197115385 1.38113839285714  C 13.1900040064103 1.44475446428571  13.1538461538462 1.52008928571429  13.1538461538462 1.60714285714286  L 13.1538461538462 4.5  C 13.1538461538462 4.58705357142857  13.1900040064103 4.66238839285714  13.2623197115385 4.72600446428572  C 13.3346354166667 4.78962053571429  13.4202724358974 4.82142857142857  13.5192307692308 4.82142857142857  L 14.25 4.82142857142857  C 14.3489583333333 4.82142857142857  14.4345953525641 4.78962053571429  14.5069110576923 4.72600446428572  Z M 18.5661057692308 2.953125  C 18.8553685897436 3.20758928571429  19 3.50892857142857  19 3.85714285714286  L 19 16.7142857142857  C 19 17.0625  18.8553685897436 17.3638392857143  18.5661057692308 17.6183035714286  C 18.2768429487179 17.8727678571429  17.9342948717949 18  17.5384615384615 18  L 1.46153846153846 18  C 1.06570512820513 18  0.723157051282051 17.8727678571429  0.433894230769231 17.6183035714286  C 0.14463141025641 17.3638392857143  0 17.0625  0 16.7142857142857  L 0 3.85714285714286  C 0 3.50892857142857  0.14463141025641 3.20758928571429  0.433894230769231 2.953125  C 0.723157051282051 2.69866071428571  1.06570512820513 2.57142857142857  1.46153846153846 2.57142857142857  L 2.92307692307692 2.57142857142857  L 2.92307692307692 1.60714285714286  C 2.92307692307692 1.16517857142857  3.10196314102564 0.786830357142856  3.45973557692308 0.472098214285715  C 3.81750801282051 0.157366071428572  4.24759615384615 0  4.75 0  L 5.48076923076923 0  C 5.98317307692308 0  6.41326121794872 0.157366071428572  6.77103365384615 0.472098214285715  C 7.12880608974359 0.786830357142856  7.30769230769231 1.16517857142857  7.30769230769231 1.60714285714286  L 7.30769230769231 2.57142857142857  L 11.6923076923077 2.57142857142857  L 11.6923076923077 1.60714285714286  C 11.6923076923077 1.16517857142857  11.8711939102564 0.786830357142856  12.2289663461538 0.472098214285715  C 12.5867387820513 0.157366071428572  13.0168269230769 0  13.5192307692308 0  L 14.25 0  C 14.7524038461538 0  15.1824919871795 0.157366071428572  15.5402644230769 0.472098214285715  C 15.8980368589744 0.786830357142856  16.0769230769231 1.16517857142857  16.0769230769231 1.60714285714286  L 16.0769230769231 2.57142857142857  L 17.5384615384615 2.57142857142857  C 17.9342948717949 2.57142857142857  18.2768429487179 2.69866071428571  18.5661057692308 2.953125  Z " fill-rule="nonzero" fill="#000000" stroke="none" transform="matrix(1 0 0 1 517 164 )" />
  </g>
</svg>