<?xml version="1.0" encoding="utf-8"?>
<svg version="1.1" xmlns:xlink="http://www.w3.org/1999/xlink" width="18px" height="13px" xmlns="http://www.w3.org/2000/svg">
  <g transform="matrix(1 0 0 1 -69 -165 )">
    <path d="M 17.6907216494845 0.781563126252504  C 17.8969072164948 0.868403473613893  18 0.968269873079491  18 1.0811623246493  C 18 1.1940547762191  17.8969072164948 1.2939211756847  17.6907216494845 1.38076152304609  L 5.5360824742268 6.5  L 17.6907216494845 11.6192384769539  C 17.8969072164948 11.7060788243153  18 11.8059452237809  18 11.9188376753507  C 18 12.0317301269205  17.8969072164948 12.1315965263861  17.6907216494845 12.2184368737475  L 16.1443298969072 12.8697394789579  C 15.9381443298969 12.9565798263193  15.7010309278351 13  15.4329896907216 13  C 15.1649484536083 13  14.9278350515464 12.9565798263193  14.7216494845361 12.8697394789579  L 0.309278350515464 6.79959919839679  C 0.103092783505155 6.7127588510354  0 6.61289245156981  0 6.5  C 0 6.38710754843019  0.103092783505155 6.2872411489646  0.309278350515464 6.20040080160321  L 14.7216494845361 0.130260521042084  C 14.9278350515464 0.0434201736806943  15.1649484536083 0  15.4329896907216 0  C 15.7010309278351 0  15.9381443298969 0.0434201736806943  16.1443298969072 0.130260521042084  L 17.6907216494845 0.781563126252504  Z " fill-rule="nonzero" fill="#000000" stroke="none" transform="matrix(1 0 0 1 69 165 )" />
  </g>
</svg>