<?xml version="1.0" encoding="utf-8"?>
<svg version="1.1" xmlns:xlink="http://www.w3.org/1999/xlink" width="18px" height="13px" xmlns="http://www.w3.org/2000/svg">
  <g transform="matrix(1 0 0 1 -29 -166 )">
    <path d="M 10.6583850931677 11.6192384769539  C 10.7826086956522 11.7060788243153  10.8447204968944 11.8059452237809  10.8447204968944 11.9188376753507  C 10.8447204968944 12.0317301269205  10.7826086956522 12.1315965263861  10.6583850931677 12.2184368737475  L 9.72670807453416 12.8697394789579  C 9.60248447204969 12.9565798263193  9.45962732919255 13  9.29813664596273 13  C 9.13664596273292 13  8.99378881987578 12.9565798263193  8.8695652173913 12.8697394789579  L 0.186335403726708 6.79959919839679  C 0.0621118012422361 6.7127588510354  0 6.61289245156981  0 6.5  C 0 6.38710754843019  0.0621118012422361 6.2872411489646  0.186335403726708 6.20040080160321  L 8.8695652173913 0.130260521042084  C 8.99378881987578 0.0434201736806943  9.13664596273292 0  9.29813664596273 0  C 9.45962732919255 0  9.60248447204969 0.0434201736806943  9.72670807453416 0.130260521042084  L 10.6583850931677 0.781563126252504  C 10.7826086956522 0.868403473613893  10.8447204968944 0.968269873079491  10.8447204968944 1.0811623246493  C 10.8447204968944 1.1940547762191  10.7826086956522 1.2939211756847  10.6583850931677 1.38076152304609  L 3.33540372670807 6.5  L 10.6583850931677 11.6192384769539  Z M 17.8136645962733 11.6192384769539  C 17.9378881987578 11.7060788243153  18 11.8059452237809  18 11.9188376753507  C 18 12.0317301269205  17.9378881987578 12.1315965263861  17.8136645962733 12.2184368737475  L 16.8819875776398 12.8697394789579  C 16.7577639751553 12.9565798263193  16.6149068322981 13  16.4534161490683 13  C 16.2919254658385 13  16.1490683229814 12.9565798263193  16.0248447204969 12.8697394789579  L 7.3416149068323 6.79959919839679  C 7.21739130434783 6.7127588510354  7.15527950310559 6.61289245156981  7.15527950310559 6.5  C 7.15527950310559 6.38710754843019  7.21739130434783 6.2872411489646  7.3416149068323 6.20040080160321  L 16.0248447204969 0.130260521042084  C 16.1490683229814 0.0434201736806943  16.2919254658385 0  16.4534161490683 0  C 16.6149068322981 0  16.7577639751553 0.0434201736806943  16.8819875776398 0.130260521042084  L 17.8136645962733 0.781563126252504  C 17.9378881987578 0.868403473613893  18 0.968269873079491  18 1.0811623246493  C 18 1.1940547762191  17.9378881987578 1.2939211756847  17.8136645962733 1.38076152304609  L 10.4906832298137 6.5  L 17.8136645962733 11.6192384769539  Z " fill-rule="nonzero" fill="#000000" stroke="none" transform="matrix(1 0 0 1 29 166 )" />
  </g>
</svg>