<?xml version="1.0" encoding="utf-8"?>
<svg version="1.1" xmlns:xlink="http://www.w3.org/1999/xlink" width="18px" height="13px" xmlns="http://www.w3.org/2000/svg">
  <g transform="matrix(1 0 0 1 -319 -163 )">
    <path d="M 17.6907216494845 6.20040080160321  C 17.8969072164948 6.2872411489646  18 6.38710754843019  18 6.5  C 18 6.61289245156981  17.8969072164948 6.7127588510354  17.6907216494845 6.79959919839679  L 3.27835051546392 12.8697394789579  C 3.07216494845361 12.9565798263193  2.83505154639175 13  2.56701030927835 13  C 2.29896907216495 13  2.06185567010309 12.9565798263193  1.85567010309278 12.8697394789579  L 0.309278350515464 12.2184368737475  C 0.103092783505155 12.1315965263861  0 12.0317301269205  0 11.9188376753507  C 0 11.8059452237809  0.103092783505155 11.7060788243153  0.309278350515464 11.6192384769539  L 12.4639175257732 6.5  L 0.309278350515464 1.38076152304609  C 0.103092783505155 1.2939211756847  0 1.1940547762191  0 1.0811623246493  C 0 0.968269873079491  0.103092783505155 0.868403473613893  0.309278350515464 0.781563126252504  L 1.85567010309278 0.130260521042084  C 2.06185567010309 0.0434201736806943  2.29896907216495 0  2.56701030927835 0  C 2.83505154639175 0  3.07216494845361 0.0434201736806943  3.27835051546392 0.130260521042084  L 17.6907216494845 6.20040080160321  Z " fill-rule="nonzero" fill="#000000" stroke="none" transform="matrix(1 0 0 1 319 163 )" />
  </g>
</svg>