<?xml version="1.0" encoding="utf-8"?>
<svg version="1.1" xmlns:xlink="http://www.w3.org/1999/xlink" width="26px" height="20px" xmlns="http://www.w3.org/2000/svg">
  <g transform="matrix(1 0 0 1 -506 -161 )">
    <path d="M 25.416015625 11.7903645833333  C 25.5232204861111 11.8728298611111  25.5768229166667 11.9704861111111  25.5768229166667 12.0833333333333  C 25.5768229166667 12.1267361111111  25.5711805555556 12.1571180555556  25.5598958333333 12.1744791666667  C 24.8376736111111 14.5008680555556  23.3255208333333 16.38671875  21.0234375 17.83203125  C 18.7213541666667 19.27734375  16.0243055555556 20  12.9322916666667 20  C 11.2847222222222 20  9.69075520833333 19.7612847222222  8.150390625 19.2838541666667  C 6.61002604166667 18.8064236111111  5.23611111111111 18.125  4.02864583333333 17.2395833333333  L 1.84505208333333 18.9192708333333  C 1.63064236111111 19.0842013888889  1.37673611111111 19.1666666666667  1.08333333333333 19.1666666666667  C 0.789930555555556 19.1666666666667  0.536024305555556 19.0842013888889  0.321614583333333 18.9192708333333  C 0.107204861111111 18.7543402777778  0 18.5590277777778  0 18.3333333333333  L 0 12.5  C 0 12.2743055555556  0.107204861111111 12.0789930555556  0.321614583333333 11.9140625  C 0.536024305555556 11.7491319444444  0.789930555555556 11.6666666666667  1.08333333333333 11.6666666666667  L 8.66666666666667 11.6666666666667  C 8.96006944444444 11.6666666666667  9.21397569444444 11.7491319444444  9.42838541666667 11.9140625  C 9.64279513888889 12.0789930555556  9.75 12.2743055555556  9.75 12.5  C 9.75 12.7256944444444  9.64279513888889 12.9210069444444  9.42838541666667 13.0859375  L 7.109375 14.8697916666667  C 7.91059027777778 15.4427083333333  8.81901041666667 15.8854166666667  9.83463541666667 16.1979166666667  C 10.8502604166667 16.5104166666667  11.9053819444444 16.6666666666667  13 16.6666666666667  C 14.5121527777778 16.6666666666667  15.9227430555556 16.3845486111111  17.2317708333333 15.8203125  C 18.5407986111111 15.2560763888889  19.5902777777778 14.4791666666667  20.3802083333333 13.4895833333333  C 20.5043402777778 13.3420138888889  20.8033854166667 12.8342013888889  21.27734375 11.9661458333333  C 21.3676215277778 11.7664930555556  21.5368923611111 11.6666666666667  21.78515625 11.6666666666667  L 25.03515625 11.6666666666667  C 25.1818576388889 11.6666666666667  25.3088107638889 11.7078993055556  25.416015625 11.7903645833333  Z M 25.6783854166667 1.08072916666667  C 25.8927951388889 1.24565972222222  26 1.44097222222222  26 1.66666666666667  L 26 7.5  C 26 7.72569444444444  25.8927951388889 7.92100694444444  25.6783854166667 8.0859375  C 25.4639756944444 8.25086805555556  25.2100694444444 8.33333333333333  24.9166666666667 8.33333333333333  L 17.3333333333333 8.33333333333333  C 17.0399305555556 8.33333333333333  16.7860243055556 8.25086805555556  16.5716145833333 8.0859375  C 16.3572048611111 7.92100694444444  16.25 7.72569444444444  16.25 7.5  C 16.25 7.27430555555555  16.3572048611111 7.07899305555555  16.5716145833333 6.9140625  L 18.9075520833333 5.1171875  C 17.2374131944444 3.92795138888889  15.2682291666667 3.33333333333333  13 3.33333333333333  C 11.4878472222222 3.33333333333333  10.0772569444444 3.61545138888889  8.76822916666667 4.1796875  C 7.45920138888889 4.74392361111111  6.40972222222222 5.52083333333333  5.61979166666667 6.51041666666667  C 5.49565972222222 6.65798611111111  5.19661458333333 7.16579861111111  4.72265625 8.03385416666667  C 4.63237847222222 8.23350694444444  4.46310763888889 8.33333333333333  4.21484375 8.33333333333333  L 0.846354166666667 8.33333333333333  C 0.699652777777778 8.33333333333333  0.572699652777778 8.29210069444444  0.465494791666667 8.20963541666667  C 0.358289930555556 8.12717013888889  0.3046875 8.02951388888889  0.3046875 7.91666666666667  L 0.3046875 7.82552083333333  C 1.03819444444444 5.49913194444444  2.56163194444444 3.61328125  4.875 2.16796875  C 7.18836805555556 0.72265625  9.89670138888889 0  13 0  C 14.6475694444444 0  16.25 0.240885416666667  17.8072916666667 0.72265625  C 19.3645833333333 1.20442708333333  20.7469618055556 1.88368055555555  21.9544270833333 2.76041666666667  L 24.1549479166667 1.08072916666667  C 24.3693576388889 0.915798611111109  24.6232638888889 0.833333333333333  24.9166666666667 0.833333333333333  C 25.2100694444444 0.833333333333333  25.4639756944444 0.915798611111109  25.6783854166667 1.08072916666667  Z " fill-rule="nonzero" fill="#000000" stroke="none" transform="matrix(1 0 0 1 506 161 )" />
  </g>
</svg>