<?xml version="1.0" encoding="utf-8"?>
<svg version="1.1" xmlns:xlink="http://www.w3.org/1999/xlink" width="14px" height="13px" xmlns="http://www.w3.org/2000/svg">
  <g transform="matrix(1 0 0 1 -286 -170 )">
    <path d="M 8.28985507246377 6.20040080160321  C 8.38647342995169 6.2872411489646  8.43478260869565 6.38710754843019  8.43478260869565 6.5  C 8.43478260869565 6.61289245156981  8.38647342995169 6.7127588510354  8.28985507246377 6.79959919839679  L 1.53623188405797 12.8697394789579  C 1.43961352657005 12.9565798263193  1.32850241545894 13  1.20289855072464 13  C 1.07729468599034 13  0.966183574879227 12.9565798263193  0.869565217391304 12.8697394789579  L 0.144927536231884 12.2184368737475  C 0.0483091787439614 12.1315965263861  0 12.0317301269205  0 11.9188376753507  C 0 11.8059452237809  0.0483091787439614 11.7060788243153  0.144927536231884 11.6192384769539  L 5.84057971014493 6.5  L 0.144927536231884 1.38076152304609  C 0.0483091787439614 1.2939211756847  0 1.1940547762191  0 1.0811623246493  C 0 0.968269873079491  0.0483091787439614 0.868403473613893  0.144927536231884 0.781563126252504  L 0.869565217391304 0.130260521042084  C 0.966183574879227 0.0434201736806943  1.07729468599034 0  1.20289855072464 0  C 1.32850241545894 0  1.43961352657005 0.0434201736806943  1.53623188405797 0.130260521042084  L 8.28985507246377 6.20040080160321  Z M 13.8550724637681 6.20040080160321  C 13.951690821256 6.2872411489646  14 6.38710754843019  14 6.5  C 14 6.61289245156981  13.951690821256 6.7127588510354  13.8550724637681 6.79959919839679  L 7.10144927536232 12.8697394789579  C 7.0048309178744 12.9565798263193  6.89371980676328 13  6.76811594202899 13  C 6.64251207729469 13  6.53140096618358 12.9565798263193  6.43478260869565 12.8697394789579  L 5.71014492753623 12.2184368737475  C 5.61352657004831 12.1315965263861  5.56521739130435 12.0317301269205  5.56521739130435 11.9188376753507  C 5.56521739130435 11.8059452237809  5.61352657004831 11.7060788243153  5.71014492753623 11.6192384769539  L 11.4057971014493 6.5  L 5.71014492753623 1.38076152304609  C 5.61352657004831 1.2939211756847  5.56521739130435 1.1940547762191  5.56521739130435 1.0811623246493  C 5.56521739130435 0.968269873079491  5.61352657004831 0.868403473613893  5.71014492753623 0.781563126252504  L 6.43478260869565 0.130260521042084  C 6.53140096618358 0.0434201736806943  6.64251207729469 0  6.76811594202899 0  C 6.89371980676328 0  7.0048309178744 0.0434201736806943  7.10144927536232 0.130260521042084  L 13.8550724637681 6.20040080160321  Z " fill-rule="nonzero" fill="#000000" stroke="none" transform="matrix(1 0 0 1 286 170 )" />
  </g>
</svg>