<?xml version="1.0" encoding="utf-8"?>
<svg version="1.1" xmlns:xlink="http://www.w3.org/1999/xlink" width="14px" height="13px" xmlns="http://www.w3.org/2000/svg">
  <g transform="matrix(1 0 0 1 -28 -173 )">
    <path d="M 8.28985507246377 11.6192384769539  C 8.38647342995169 11.7060788243153  8.43478260869565 11.8059452237809  8.43478260869565 11.9188376753507  C 8.43478260869565 12.0317301269205  8.38647342995169 12.1315965263861  8.28985507246377 12.2184368737475  L 7.56521739130435 12.8697394789579  C 7.46859903381643 12.9565798263193  7.35748792270532 13  7.23188405797101 13  C 7.10628019323672 13  6.9951690821256 12.9565798263193  6.89855072463768 12.8697394789579  L 0.144927536231884 6.79959919839679  C 0.0483091787439614 6.7127588510354  0 6.61289245156981  0 6.5  C 0 6.38710754843019  0.0483091787439614 6.2872411489646  0.144927536231884 6.20040080160321  L 6.89855072463768 0.130260521042084  C 6.9951690821256 0.0434201736806943  7.10628019323672 0  7.23188405797101 0  C 7.35748792270532 0  7.46859903381643 0.0434201736806943  7.56521739130435 0.130260521042084  L 8.28985507246377 0.781563126252504  C 8.38647342995169 0.868403473613893  8.43478260869565 0.968269873079491  8.43478260869565 1.0811623246493  C 8.43478260869565 1.1940547762191  8.38647342995169 1.2939211756847  8.28985507246377 1.38076152304609  L 2.59420289855072 6.5  L 8.28985507246377 11.6192384769539  Z M 13.8550724637681 11.6192384769539  C 13.951690821256 11.7060788243153  14 11.8059452237809  14 11.9188376753507  C 14 12.0317301269205  13.951690821256 12.1315965263861  13.8550724637681 12.2184368737475  L 13.1304347826087 12.8697394789579  C 13.0338164251208 12.9565798263193  12.9227053140097 13  12.7971014492754 13  C 12.6714975845411 13  12.56038647343 12.9565798263193  12.463768115942 12.8697394789579  L 5.71014492753623 6.79959919839679  C 5.61352657004831 6.7127588510354  5.56521739130435 6.61289245156981  5.56521739130435 6.5  C 5.56521739130435 6.38710754843019  5.61352657004831 6.2872411489646  5.71014492753623 6.20040080160321  L 12.463768115942 0.130260521042084  C 12.56038647343 0.0434201736806943  12.6714975845411 0  12.7971014492754 0  C 12.9227053140097 0  13.0338164251208 0.0434201736806943  13.1304347826087 0.130260521042084  L 13.8550724637681 0.781563126252504  C 13.951690821256 0.868403473613893  14 0.968269873079491  14 1.0811623246493  C 14 1.1940547762191  13.951690821256 1.2939211756847  13.8550724637681 1.38076152304609  L 8.15942028985507 6.5  L 13.8550724637681 11.6192384769539  Z " fill-rule="nonzero" fill="#000000" stroke="none" transform="matrix(1 0 0 1 28 173 )" />
  </g>
</svg>