<?xml version="1.0" encoding="utf-8"?>
<svg version="1.1" xmlns:xlink="http://www.w3.org/1999/xlink" width="14px" height="13px" xmlns="http://www.w3.org/2000/svg">
  <g transform="matrix(1 0 0 1 -255 -170 )">
    <path d="M 13.7594501718213 6.20040080160321  C 13.9198167239404 6.2872411489646  14 6.38710754843019  14 6.5  C 14 6.61289245156981  13.9198167239404 6.7127588510354  13.7594501718213 6.79959919839679  L 2.54982817869416 12.8697394789579  C 2.38946162657503 12.9565798263193  2.20504009163803 13  1.99656357388316 13  C 1.78808705612829 13  1.60366552119129 12.9565798263193  1.44329896907216 12.8697394789579  L 0.240549828178694 12.2184368737475  C 0.0801832760595648 12.1315965263861  0 12.0317301269205  0 11.9188376753507  C 0 11.8059452237809  0.0801832760595648 11.7060788243153  0.240549828178694 11.6192384769539  L 9.69415807560137 6.5  L 0.240549828178694 1.38076152304609  C 0.0801832760595648 1.2939211756847  0 1.1940547762191  0 1.0811623246493  C 0 0.968269873079491  0.0801832760595648 0.868403473613893  0.240549828178694 0.781563126252504  L 1.44329896907216 0.130260521042084  C 1.60366552119129 0.0434201736806943  1.78808705612829 0  1.99656357388316 0  C 2.20504009163803 0  2.38946162657503 0.0434201736806943  2.54982817869416 0.130260521042084  L 13.7594501718213 6.20040080160321  Z " fill-rule="nonzero" fill="#000000" stroke="none" transform="matrix(1 0 0 1 255 170 )" />
  </g>
</svg>