<?xml version="1.0" encoding="utf-8"?>
<svg version="1.1" xmlns:xlink="http://www.w3.org/1999/xlink" width="21px" height="20px" xmlns="http://www.w3.org/2000/svg">
  <g transform="matrix(1 0 0 1 -402 -168 )">
    <path d="M 20.5283203125 11.7903645833333  C 20.6149088541667 11.8728298611111  20.658203125 11.9704861111111  20.658203125 12.0833333333333  C 20.658203125 12.1267361111111  20.6536458333333 12.1571180555556  20.64453125 12.1744791666667  C 20.0611979166667 14.5008680555556  18.83984375 16.38671875  16.98046875 17.83203125  C 15.12109375 19.27734375  12.9427083333333 20  10.4453125 20  C 9.11458333333333 20  7.8271484375 19.7612847222222  6.5830078125 19.2838541666667  C 5.3388671875 18.8064236111111  4.22916666666667 18.125  3.25390625 17.2395833333333  L 1.490234375 18.9192708333333  C 1.31705729166667 19.0842013888889  1.11197916666667 19.1666666666667  0.875 19.1666666666667  C 0.638020833333333 19.1666666666667  0.432942708333333 19.0842013888889  0.259765625 18.9192708333333  C 0.0865885416666667 18.7543402777778  0 18.5590277777778  0 18.3333333333333  L 0 12.5  C 0 12.2743055555556  0.0865885416666667 12.0789930555556  0.259765625 11.9140625  C 0.432942708333333 11.7491319444444  0.638020833333333 11.6666666666667  0.875 11.6666666666667  L 7 11.6666666666667  C 7.23697916666667 11.6666666666667  7.44205729166667 11.7491319444444  7.615234375 11.9140625  C 7.78841145833333 12.0789930555556  7.875 12.2743055555556  7.875 12.5  C 7.875 12.7256944444444  7.78841145833333 12.9210069444444  7.615234375 13.0859375  L 5.7421875 14.8697916666667  C 6.38932291666667 15.4427083333333  7.123046875 15.8854166666667  7.943359375 16.1979166666667  C 8.763671875 16.5104166666667  9.61588541666667 16.6666666666667  10.5 16.6666666666667  C 11.7213541666667 16.6666666666667  12.8606770833333 16.3845486111111  13.91796875 15.8203125  C 14.9752604166667 15.2560763888889  15.8229166666667 14.4791666666667  16.4609375 13.4895833333333  C 16.5611979166667 13.3420138888889  16.802734375 12.8342013888889  17.185546875 11.9661458333333  C 17.2584635416667 11.7664930555556  17.3951822916667 11.6666666666667  17.595703125 11.6666666666667  L 20.220703125 11.6666666666667  C 20.3391927083333 11.6666666666667  20.4417317708333 11.7078993055556  20.5283203125 11.7903645833333  Z M 20.740234375 1.08072916666667  C 20.9134114583333 1.24565972222222  21 1.44097222222222  21 1.66666666666667  L 21 7.5  C 21 7.72569444444444  20.9134114583333 7.92100694444444  20.740234375 8.0859375  C 20.5670572916667 8.25086805555556  20.3619791666667 8.33333333333333  20.125 8.33333333333333  L 14 8.33333333333333  C 13.7630208333333 8.33333333333333  13.5579427083333 8.25086805555556  13.384765625 8.0859375  C 13.2115885416667 7.92100694444444  13.125 7.72569444444444  13.125 7.5  C 13.125 7.27430555555555  13.2115885416667 7.07899305555555  13.384765625 6.9140625  L 15.271484375 5.1171875  C 13.9225260416667 3.92795138888889  12.33203125 3.33333333333333  10.5 3.33333333333333  C 9.27864583333333 3.33333333333333  8.13932291666667 3.61545138888889  7.08203125 4.1796875  C 6.02473958333333 4.74392361111111  5.17708333333333 5.52083333333333  4.5390625 6.51041666666667  C 4.43880208333333 6.65798611111111  4.197265625 7.16579861111111  3.814453125 8.03385416666667  C 3.74153645833333 8.23350694444444  3.60481770833333 8.33333333333333  3.404296875 8.33333333333333  L 0.68359375 8.33333333333333  C 0.565104166666667 8.33333333333333  0.462565104166667 8.29210069444444  0.3759765625 8.20963541666667  C 0.289388020833333 8.12717013888889  0.24609375 8.02951388888889  0.24609375 7.91666666666667  L 0.24609375 7.82552083333333  C 0.838541666666667 5.49913194444444  2.06901041666667 3.61328125  3.9375 2.16796875  C 5.80598958333333 0.72265625  7.99348958333333 0  10.5 0  C 11.8307291666667 0  13.125 0.240885416666667  14.3828125 0.72265625  C 15.640625 1.20442708333333  16.7571614583333 1.88368055555555  17.732421875 2.76041666666667  L 19.509765625 1.08072916666667  C 19.6829427083333 0.915798611111109  19.8880208333333 0.833333333333333  20.125 0.833333333333333  C 20.3619791666667 0.833333333333333  20.5670572916667 0.915798611111109  20.740234375 1.08072916666667  Z " fill-rule="nonzero" fill="#000000" stroke="none" transform="matrix(1 0 0 1 402 168 )" />
  </g>
</svg>